<svg width="48" height="48" fill="none" xmlns="http://www.w3.org/2000/svg"><g clip-path="url(#a)"><path d="M1 10a2 2 0 0 1 2-2h42a2 2 0 0 1 2 2v29a2 2 0 0 1-2 2H3a2 2 0 0 1-2-2V10Z" stroke="url(#b)" stroke-width="2" stroke-linecap="round" stroke-linejoin="round"/><path d="M7.533 31v-1.273l3.938-4.08c.42-.442.767-.83 1.04-1.164.276-.337.483-.657.619-.96.136-.303.204-.625.204-.966 0-.386-.09-.72-.272-1a1.782 1.782 0 0 0-.744-.654 2.367 2.367 0 0 0-1.063-.232c-.417 0-.78.085-1.09.255-.312.17-.55.411-.717.722-.167.31-.25.674-.25 1.09H7.522c0-.708.163-1.327.489-1.857a3.32 3.32 0 0 1 1.34-1.233c.569-.296 1.215-.444 1.938-.444.731 0 1.375.146 1.932.438.56.288.998.682 1.312 1.182.315.496.472 1.057.472 1.682 0 .431-.082.854-.244 1.267-.16.413-.438.873-.836 1.38-.397.504-.95 1.116-1.659 1.836l-2.312 2.42v.085h5.239V31h-7.66Zm9.319-2.273v-1.42l5.028-7.943H23v2.09h-.71l-3.598 5.694v.09h6.892v1.49h-8.732ZM22.369 31v-2.704l.011-.648v-8.284h1.665V31h-1.676Zm9.65-12.182L28.27 32.75h-1.517l3.75-13.932h1.517ZM33.832 31l5.08-10.046v-.085h-5.876v-1.505h7.693v1.556L35.667 31h-1.835Z" fill="url(#c)"/></g><defs><linearGradient id="b" x1="1" y1="24.503" x2="47.007" y2="24.503" gradientUnits="userSpaceOnUse"><stop stop-color="#F26F21"/><stop offset=".64" stop-color="#EF522D"/><stop offset="1" stop-color="#EE4036"/></linearGradient><linearGradient id="c" x1="0" y1="25.004" x2="48.008" y2="25.004" gradientUnits="userSpaceOnUse"><stop stop-color="#F26F21"/><stop offset=".64" stop-color="#EF522D"/><stop offset="1" stop-color="#EE4036"/></linearGradient><clipPath id="a"><path fill="#fff" d="M0 0h48v48H0z"/></clipPath></defs></svg>