<?xml version="1.0" encoding="utf-8"?>
<!-- Generator: Adobe Illustrator 26.5.0, SVG Export Plug-In . SVG Version: 6.00 Build 0)  -->
<svg version="1.1" id="Layer_1" xmlns="http://www.w3.org/2000/svg" xmlns:xlink="http://www.w3.org/1999/xlink" x="0px" y="0px"
	 viewBox="0 0 37.2 38" style="enable-background:new 0 0 37.2 38;" xml:space="preserve">
<style type="text/css">
	.st0{fill-rule:evenodd;clip-rule:evenodd;fill:url(#SVGID_1_);}
	.st1{fill-rule:evenodd;clip-rule:evenodd;fill:url(#SVGID_00000016794110425676456630000004892864728290827953_);}
	.st2{fill-rule:evenodd;clip-rule:evenodd;fill:url(#SVGID_00000040533208886686225480000002501345478679570605_);}
	.st3{fill:url(#SVGID_00000110473118465547594030000016778693716410309000_);}
	.st4{fill:url(#SVGID_00000101804359431359666860000006158278095361952941_);}
	.st5{fill:url(#SVGID_00000021118451193606190100000006307764422709913787_);}
	.st6{fill:url(#SVGID_00000004532161203748679650000015151377175175078839_);}
	.st7{fill:url(#SVGID_00000129186483398230543900000013613747201790231221_);}
	.st8{fill:url(#SVGID_00000157275715458187608710000016824385950781629851_);}
	.st9{fill-rule:evenodd;clip-rule:evenodd;fill:url(#SVGID_00000011026517649800470160000010342075562315967366_);}
</style>
<linearGradient id="SVGID_1_" gradientUnits="userSpaceOnUse" x1="0.3218" y1="19.1596" x2="36.8741" y2="19.1596">
	<stop  offset="0" style="stop-color:#F26F21"/>
	<stop  offset="0.64" style="stop-color:#EF522D"/>
	<stop  offset="1" style="stop-color:#EE4036"/>
</linearGradient>
<path class="st0" d="M35.7,21.4h-0.4v-9.5c0-1.3-1.1-2.1-2.4-2.1V2.1c0-1.4-1-1.9-2.1-1.7L2.1,9.3c-1.6,0.5-1.7,1-1.7,2.6v23.7
	c0,1.3,1.1,2.4,2.4,2.4l30.2,0c1.3,0,2.4-1.1,2.4-2.4l0.3-7.1h0.1c0.7,0,1.2-0.5,1.2-1.2v-4.7C36.9,21.9,36.3,21.4,35.7,21.4z
	 M30.2,3.3c0.4-0.1,0.6,0,0.6,0.4v6.2H8.4L30.2,3.3z M33.2,34.4c0,0.7-0.5,1.2-1.2,1.2l-28.4,0c-0.7,0-1.2-0.5-1.2-1.2V13.2
	c0-0.9,0.2-1.3,1.2-1.3H32c0.7,0,1.2,0.5,1.2,1.2v8.3h-5.6c-0.7,0-1.2,0.5-1.2,1.2v4.7c0,0.7,0.5,1.2,1.2,1.2h4.9h0.7V34.4z
	 M34.8,26.1h-6.4v-2.4h6.4V26.1z"/>
</svg>
