<svg width="48" height="48" fill="none" xmlns="http://www.w3.org/2000/svg"><path d="M28.405 8.854a2.99 2.99 0 0 1 4.249 4.149l-3.38 4.387a1 1 0 0 0 .792 1.61H39a3 3 0 0 1 3 3v1c0 .391-.077.765-.213 1.107A2.999 2.999 0 0 1 44 27v1a3 3 0 0 1-3 3h-.174c.11.313.174.65.174 1v1a3 3 0 0 1-3 3h-.168c.107.309.168.64.168.985v.976a3 3 0 0 1-3 3h-.726A.997.997 0 0 1 34 41h-.5c-.179 0-.354-.013-.525-.04H17a2.996 2.996 0 0 1-2.51-1.358c-.44.252-.948.398-1.49.398H7a3 3 0 0 1-3-3V24a3 3 0 0 1 3-3h6c.386 0 .755.076 1.094.209a3 3 0 0 1 1.017-1.586L28.405 8.854Zm2.577 1.62a.99.99 0 0 0-1.318-.065L16.37 21.177c-.234.19-.37.476-.37.777v16.007a1 1 0 0 0 1 1h13.32a3.485 3.485 0 0 1 .33-3.491 3.497 3.497 0 0 1-1.227-4.64 3.501 3.501 0 0 1 0-6.661A3.486 3.486 0 0 1 29 22.5c0-.568.136-1.104.376-1.578-2.044-.468-3.06-2.971-1.687-4.753l3.38-4.387a.99.99 0 0 0-.087-1.307ZM33.5 36a1.5 1.5 0 0 0-.336 2.96H35a1 1 0 0 0 1-1v-.975a1 1 0 0 0-.831-.985h-1.67ZM7 23a1 1 0 0 0-1 1v13a1 1 0 0 0 1 1h6a1 1 0 0 0 1-1V24a1 1 0 0 0-1-1H7Zm25.5 8a1.5 1.5 0 0 0 0 3h.492l1.985-.015c.11 0 .219.004.325.015H38a1 1 0 0 0 1-1v-1a1 1 0 0 0-1-1h-5.5Zm-2-5a1.5 1.5 0 0 0 0 3H41a1 1 0 0 0 1-1v-1a1 1 0 0 0-1-1H30.5Zm2-5a1.5 1.5 0 0 0 0 3H39a1 1 0 0 0 1-1v-1a1 1 0 0 0-1-1h-6.5Z" fill="url(#a)"/><defs><linearGradient id="a" x1="4" y1="24.597" x2="44.006" y2="24.597" gradientUnits="userSpaceOnUse"><stop stop-color="#F26F21"/><stop offset=".64" stop-color="#EF522D"/><stop offset="1" stop-color="#EE4036"/></linearGradient></defs></svg>