<svg width="30" height="30" fill="none" xmlns="http://www.w3.org/2000/svg"><path d="M15 27.5c.305 0 .589-.141 1.157-.425l4.563-2.271c2.021-1.004 3.03-1.508 3.03-2.304v-10M15 27.5c-.305 0-.589-.141-1.158-.425L9.28 24.804C7.259 23.8 6.25 23.296 6.25 22.5v-10m8.75 15v-10m8.75-5c0-.796-1.01-1.299-3.029-2.304l-4.564-2.272C15.587 7.64 15.305 7.5 15 7.5m8.75 5c0 .796-1.01 1.299-3.029 2.304l-4.564 2.272c-.568.283-.852.424-1.157.424m-8.75-5c0-.796 1.009-1.3 3.03-2.304l4.563-2.271c.568-.284.852-.425 1.157-.425m-8.75 5c0 .796 1.01 1.299 3.029 2.304l4.563 2.272c.57.283.853.424 1.158.424m0-10v-5m12.5 23.75-3.75-3.125M2.5 26.25l3.75-3.125" stroke="url(#a)" stroke-width="1.875" stroke-linecap="round" stroke-linejoin="round"/><defs><linearGradient id="a" x1="2.5" y1="15.002" x2="27.504" y2="15.002" gradientUnits="userSpaceOnUse"><stop stop-color="#F26F21"/><stop offset=".64" stop-color="#EF522D"/><stop offset="1" stop-color="#EE4036"/></linearGradient></defs></svg>