<svg width="30" height="30" fill="none" xmlns="http://www.w3.org/2000/svg"><g clip-path="url(#a)"><mask id="b" style="mask-type:alpha" maskUnits="userSpaceOnUse" x="0" y="0" width="30" height="30"><circle cx="15" cy="15" r="15" fill="#D9D9D9"/></mask><g mask="url(#b)"><path d="M25.467-3.471a3 3 0 0 1 2.848 2.08l1.27 3.95a3 3 0 0 1-1.1 3.35l-1.024.739a14.91 14.91 0 0 1 2.467 6.876l1.539.005a3 3 0 0 1 2.848 2.08l1.27 3.948a3.001 3.001 0 0 1-1.099 3.352l-3.362 2.427a3 3 0 0 1-3.526-.01l-1.043-.762a15.04 15.04 0 0 1-5.775 4.28l.429 1.32a3 3 0 0 1-1.09 3.353l-3.354 2.438a3.001 3.001 0 0 1-3.528 0l-3.354-2.438a3.001 3.001 0 0 1-1.09-3.354l.428-1.319a15.041 15.041 0 0 1-5.858-4.38l-1.261.9a3.001 3.001 0 0 1-3.528-.033l-3.33-2.468a3.001 3.001 0 0 1-1.06-3.364l1.318-3.933a3.001 3.001 0 0 1 2.873-2.046l1.696.015a14.91 14.91 0 0 1 2.39-6.769l-1.219-.903A3 3 0 0 1 .184 2.499l1.318-3.932A3 3 0 0 1 4.374-3.48l4.147.038a3 3 0 0 1 2.833 2.1L11.88.326a15.06 15.06 0 0 1 6.023-.044l.559-1.7a3.001 3.001 0 0 1 2.86-2.065l4.146.012Zm-6.58 32.96c-1.24.333-2.542.51-3.887.51-1.344 0-2.647-.177-3.887-.51l-.419 1.292c-.133.412.013.863.364 1.118l3.355 2.437a1 1 0 0 0 1.176 0l3.355-2.437a1 1 0 0 0 .364-1.118l-.42-1.291Zm-5.96-3.344c-.432 0-.816.28-.95.691l-.245.748a13.026 13.026 0 0 0 6.536 0l-.243-.748a1.001 1.001 0 0 0-.95-.691h-4.147ZM15 2c-.861 0-1.702.084-2.517.244l.117.369a3.001 3.001 0 0 1-1.121 3.345L8.1 8.364a3 3 0 0 1-3.527-.032l-.504-.374a12.922 12.922 0 0 0-1.99 5.595l.441.005a3 3 0 0 1 2.834 2.1l1.246 3.955a3.002 3.002 0 0 1-1.122 3.345l-.483.343a13.038 13.038 0 0 0 4.845 3.633l.233-.716a3.001 3.001 0 0 1 2.854-2.073h4.146c1.3 0 2.452.838 2.854 2.073l.232.716a13.034 13.034 0 0 0 4.775-3.554l-.686-.5a3 3 0 0 1-1.08-3.358l1.292-3.94a3.001 3.001 0 0 1 2.86-2.065l.594.001a12.92 12.92 0 0 0-2.076-5.697l-.715.516a3.002 3.002 0 0 1-3.527-.01l-3.348-2.448a3 3 0 0 1-1.081-3.357l.105-.324A13.085 13.085 0 0 0 15 2ZM-1.645 15.519a1 1 0 0 0-.957.683l-1.318 3.932c-.137.411.006.864.354 1.122l3.332 2.468c.348.258.823.262 1.175.01l1.265-.9a14.919 14.919 0 0 1-2.196-7.3l-1.655-.015Zm31.634.005a14.916 14.916 0 0 1-2.264 7.419l1.052.77a1 1 0 0 0 1.176.002l3.362-2.427a1 1 0 0 0 .366-1.118l-1.27-3.948a1.001 1.001 0 0 0-.95-.694l-1.472-.004Zm-2.675-.007a1 1 0 0 0-.953.689l-1.293 3.94a1 1 0 0 0 .36 1.12l.677.493a12.926 12.926 0 0 0 1.883-6.24l-.674-.002Zm-25.301.036c.093 2.23.748 4.315 1.827 6.116l.48-.34c.352-.252.503-.703.373-1.116l-1.246-3.956a1 1 0 0 0-.944-.699l-.49-.005Zm11.224-6.508a3 3 0 0 1 3.528 0l3.354 2.438a3.001 3.001 0 0 1 1.09 3.354l-1.281 3.945a3.001 3.001 0 0 1-2.854 2.073h-4.146c-1.3 0-2.452-.838-2.854-2.073l-1.281-3.945a3.001 3.001 0 0 1 1.09-3.354l3.354-2.438Zm2.352 1.619a1 1 0 0 0-1.176 0L11.058 13.1c-.35.255-.497.706-.364 1.118l1.283 3.945c.134.411.518.691.95.691h4.147c.433 0 .817-.28.951-.691l1.283-3.945a1 1 0 0 0-.364-1.118l-3.355-2.437Zm-5.034-7.885a13.018 13.018 0 0 0-5.272 3.589l.482.356a1 1 0 0 0 1.175.01l3.378-2.405a1 1 0 0 0 .374-1.115l-.137-.435Zm8.513.367a1 1 0 0 0 .36 1.12l3.35 2.446a1 1 0 0 0 1.175.003l.653-.472a13.01 13.01 0 0 0-5.391-3.544l-.147.447ZM4.354-1.481a1 1 0 0 0-.957.683L2.08 3.134c-.138.411.005.864.353 1.122l1.235.915a15.024 15.024 0 0 1 6.286-4.3L9.446-.742a1 1 0 0 0-.944-.7L4.354-1.48Zm16.96-.002a1 1 0 0 0-.953.689L19.838.797a15.017 15.017 0 0 1 6.4 4.268l1.076-.777a1 1 0 0 0 .367-1.118L26.41-.778a1 1 0 0 0-.95-.693l-4.146-.012Z" fill="url(#c)"/></g></g><defs><linearGradient id="c" x1="-5.972" y1="16.525" x2="35.736" y2="16.525" gradientUnits="userSpaceOnUse"><stop stop-color="#F26F21"/><stop offset=".64" stop-color="#EF522D"/><stop offset="1" stop-color="#EE4036"/></linearGradient><clipPath id="a"><path fill="#fff" d="M0 0h30v30H0z"/></clipPath></defs></svg>