<svg width="48" height="48" fill="none" xmlns="http://www.w3.org/2000/svg"><path d="M31.273 5c2.149 0 3.909 1.728 3.909 3.88v1.88h1.909c2.15 0 3.909 1.728 3.909 3.88v24.48c0 2.152-1.76 3.88-3.91 3.88H16.728c-2.149 0-3.909-1.728-3.909-3.88v-1.88H10.91C8.76 37.24 7 35.513 7 33.36V8.88C7 6.728 8.76 5 10.91 5h20.363Zm3.909 28.36c0 2.153-1.76 3.88-3.91 3.88H14.819v1.88c0 1.029.846 1.88 1.91 1.88H37.09C38.155 41 39 40.149 39 39.12V14.64c0-1.029-.845-1.88-1.91-1.88h-1.908v20.6ZM10.909 7C9.845 7 9 7.851 9 8.88v24.48c0 1.029.845 1.88 1.91 1.88h20.363c1.063 0 1.908-.851 1.909-1.88V8.88c0-1.029-.846-1.88-1.91-1.88H10.91Zm14.545 19.6a1 1 0 0 1 0 2H13.818a1 1 0 1 1 0-2h11.636Zm2.91-5.76a1 1 0 0 1 0 2H13.817a1 1 0 1 1 0-2h14.545ZM27.5 12a1.5 1.5 0 1 1 0 3 1.5 1.5 0 0 1 0-3Zm-7.863.2a1 1 0 0 1 0 2h-5.819a1 1 0 0 1 0-2h5.819Z" fill="url(#a)"/><defs><linearGradient id="a" x1="7" y1="24.003" x2="41.005" y2="24.003" gradientUnits="userSpaceOnUse"><stop stop-color="#F26F21"/><stop offset=".64" stop-color="#EF522D"/><stop offset="1" stop-color="#EE4036"/></linearGradient></defs></svg>