<svg width="48" height="48" fill="none" xmlns="http://www.w3.org/2000/svg"><path d="M24 1c6.075 0 11 4.925 11 11v7h5a3 3 0 0 1 3 3v20a3 3 0 0 1-3 3H8a3 3 0 0 1-3-3V22a3 3 0 0 1 3-3h5v-7c0-6.075 4.925-11 11-11ZM8 21a1 1 0 0 0-1 1v20a1 1 0 0 0 1 1h32a1 1 0 0 0 1-1V22a1 1 0 0 0-1-1H8Zm16 2a9 9 0 1 1 0 18 9 9 0 0 1 0-18Zm0 2a7 7 0 1 0 0 14 7 7 0 0 0 0-14Zm.321 2.898c.415.026.79.116 1.125.27.401.182.718.433.952.75.237.318.363.678.376 1.082h-.937a1.227 1.227 0 0 0-.57-.922 2.055 2.055 0 0 0-.946-.314v2.776l.313.085c.208.055.44.13.695.227.258.096.504.228.738.394.237.164.433.375.586.633.154.258.23.574.23.95 0 .431-.113.822-.34 1.171-.223.349-.551.626-.983.832-.351.168-.764.265-1.239.296V37h-.64v-.87a3.438 3.438 0 0 1-1.176-.267 2.372 2.372 0 0 1-.985-.773 2.206 2.206 0 0 1-.402-1.153h1c.026.303.128.553.305.75.18.196.406.342.68.438.183.062.376.101.578.122v-2.955l-.313-.089c-.625-.18-1.12-.436-1.485-.77-.365-.333-.546-.77-.546-1.308 0-.448.121-.838.363-1.172.245-.336.573-.596.985-.781.305-.139.637-.226.996-.262V27h.64v.898Zm0 7.348c.24-.025.464-.077.668-.16a1.71 1.71 0 0 0 .7-.508c.171-.219.257-.474.257-.766 0-.265-.074-.481-.222-.648a1.636 1.636 0 0 0-.586-.406 6.168 6.168 0 0 0-.786-.274l-.03-.01v2.772Zm-.64-6.473a2.09 2.09 0 0 0-.57.149 1.485 1.485 0 0 0-.618.473c-.146.2-.219.428-.219.683 0 .214.051.397.153.55.104.152.237.278.398.38.162.099.331.18.508.246.123.043.239.08.348.111v-2.592ZM24 3a9 9 0 0 0-9 9v7h18v-7a9 9 0 0 0-9-9Z" fill="url(#a)"/><defs><linearGradient id="a" x1="5" y1="23.003" x2="43.006" y2="23.003" gradientUnits="userSpaceOnUse"><stop stop-color="#F26F21"/><stop offset=".64" stop-color="#EF522D"/><stop offset="1" stop-color="#EE4036"/></linearGradient></defs></svg>