<svg width="48" height="48" fill="none" xmlns="http://www.w3.org/2000/svg"><path d="M34 38h10v-4a6 6 0 0 0-10.712-3.714M34 38H14m20 0v-4a9.973 9.973 0 0 0-.712-3.714M14 38H4v-4a6 6 0 0 1 10.713-3.714M14 38v-4c0-1.312.253-2.566.713-3.714m0 0A10.003 10.003 0 0 1 24 24c4.21 0 7.813 2.602 9.288 6.286M30 12a6 6 0 1 1-12 0 6 6 0 0 1 12 0Zm12 6a4 4 0 1 1-8 0 4 4 0 0 1 8 0Zm-28 0a4 4 0 1 1-8 0 4 4 0 0 1 8 0Z" stroke="url(#a)" stroke-width="2" stroke-linecap="round" stroke-linejoin="round"/><defs><linearGradient id="a" x1="4" y1="22.003" x2="44.006" y2="22.003" gradientUnits="userSpaceOnUse"><stop stop-color="#F26F21"/><stop offset=".64" stop-color="#EF522D"/><stop offset="1" stop-color="#EE4036"/></linearGradient></defs></svg>