<svg width="48" height="48" fill="none" xmlns="http://www.w3.org/2000/svg"><path d="M40 9a3 3 0 0 1 3 3v24a3 3 0 0 1-3 3H8a3 3 0 0 1-3-3V12a3 3 0 0 1 3-3h32ZM7 36a1 1 0 0 0 1 1h32a1 1 0 0 0 1-1V15H7v21Zm9-17a2 2 0 0 1 2 2v12a2 2 0 0 1-2 2h-6a2 2 0 0 1-2-2V21a2 2 0 0 1 2-2h6Zm11 0a2 2 0 0 1 2 2v12a2 2 0 0 1-2 2h-6a2 2 0 0 1-2-2V21a2 2 0 0 1 2-2h6Zm11 0a2 2 0 0 1 2 2v12a2 2 0 0 1-2 2h-6a2 2 0 0 1-2-2V21a2 2 0 0 1 2-2h6ZM10 33h6V21h-6v12Zm11 0h6V21h-6v12Zm11 0h6V21h-6v12ZM8 11a1 1 0 0 0-1 1v1h34v-1a1 1 0 0 0-1-1H8Z" fill="url(#a)"/><defs><linearGradient id="a" x1="5" y1="24.002" x2="43.006" y2="24.002" gradientUnits="userSpaceOnUse"><stop stop-color="#F26F21"/><stop offset=".64" stop-color="#EF522D"/><stop offset="1" stop-color="#EE4036"/></linearGradient></defs></svg>