<svg width="48" height="48" fill="none" xmlns="http://www.w3.org/2000/svg"><path d="M35 17c6.075 0 11 4.925 11 11s-4.925 11-11 11-11-4.925-11-11 4.925-11 11-11ZM11.9 33.213a1 1 0 0 1 1.405.17 8.958 8.958 0 0 0 4.75 3.136 8.956 8.956 0 0 0 5.682-.341 1.002 1.002 0 0 1 .746 1.856 10.956 10.956 0 0 1-6.945.416 10.957 10.957 0 0 1-5.808-3.833 1 1 0 0 1 .17-1.404ZM35 19a9 9 0 1 0 0 18 9 9 0 0 0 0-18Zm.455 3.69a4.26 4.26 0 0 1 1.542.367c.547.248.976.595 1.287 1.039.312.44.473.948.483 1.521h-1.775a1.359 1.359 0 0 0-.587-1.015 2.03 2.03 0 0 0-.95-.34v2.83l.458.116c.384.09.754.21 1.109.362.357.153.678.346.96.578.284.231.51.511.675.84.166.327.25.712.25 1.153 0 .596-.154 1.122-.459 1.576-.305.45-.745.804-1.322 1.06-.474.208-1.031.328-1.67.364v1.132h-.815V33.14c-.625-.035-1.18-.152-1.661-.355-.58-.245-1.035-.604-1.363-1.074-.325-.47-.5-1.044-.526-1.72h1.814c.027.355.136.65.328.885.193.235.443.41.751.526.203.076.422.123.657.15V28.56l-.568-.145c-.838-.215-1.5-.542-1.988-.98-.484-.44-.726-1.025-.726-1.754 0-.6.162-1.126.487-1.576.328-.451.774-.8 1.338-1.05.44-.196.925-.316 1.457-.359v-1.152h.814v1.145Zm0 8.86c.229-.028.438-.077.627-.152.305-.122.544-.291.716-.506.172-.22.26-.474.264-.766a.973.973 0 0 0-.234-.656 1.713 1.713 0 0 0-.642-.438 5.732 5.732 0 0 0-.73-.258v2.776ZM13 9c6.075 0 11 4.925 11 11s-4.925 11-11 11S2 26.075 2 20 6.925 9 13 9Zm0 2a9 9 0 1 0 0 18 9 9 0 0 0 0-18Zm21.64 13.27a2.188 2.188 0 0 0-.557.144 1.465 1.465 0 0 0-.63.472 1.15 1.15 0 0 0-.225.681c0 .212.048.396.144.552.1.156.234.288.403.398.17.106.357.195.562.268.1.036.202.069.304.099V24.27ZM12.032 14.02l-.036 1.774c.34 0 .681-.002 1.015.004l.037-1.763 1.268.019-.037 1.81c1.635.15 2.927.608 3.044 1.914.09.957-.382 1.523-1.123 1.834 1.206.27 1.952.908 1.775 2.306-.221 1.738-1.724 2.182-3.86 2.256L14.075 26l-1.268-.019.037-1.801a96.7 96.7 0 0 1-1.016-.025l-.037 1.81-1.269-.018.037-1.83-.907-.02L8 24.072l.278-1.31s.94.025.924.013c.361.004.46-.217.486-.357l.057-2.889.134.002a.896.896 0 0 0-.134-.01l.042-2.062c-.044-.224-.208-.485-.72-.493.012-.016-.924-.014-.924-.014l.023-1.178 1.752.027v.006c.262.006.534.004.808.004l.037-1.81 1.268.02Zm-.15 8.805c.862.012 3.56.21 3.586-1.159.03-1.428-2.673-1.255-3.534-1.267l-.051 2.426Zm.074-3.537c.716.01 2.966.19 2.991-1.055.026-1.298-2.23-1.134-2.947-1.144l-.044 2.2Zm10.65-10.184a10.955 10.955 0 0 1 6.946-.417c2.391.64 4.389 2.023 5.807 3.834a1 1 0 0 1-1.574 1.234 8.958 8.958 0 0 0-4.75-3.137 8.956 8.956 0 0 0-5.682.341 1 1 0 1 1-.746-1.855Z" fill="url(#a)"/><defs><linearGradient id="a" x1="2" y1="23.657" x2="46.007" y2="23.657" gradientUnits="userSpaceOnUse"><stop stop-color="#F26F21"/><stop offset=".64" stop-color="#EF522D"/><stop offset="1" stop-color="#EE4036"/></linearGradient></defs></svg>