<svg width="30" height="30" fill="none" xmlns="http://www.w3.org/2000/svg"><g clip-path="url(#a)"><path d="M15 0c8.284 0 15 6.716 15 15 0 8.284-6.716 15-15 15-8.284 0-15-6.716-15-15C0 6.716 6.716 0 15 0Zm0 2C7.82 2 2 7.82 2 15s5.82 13 13 13 13-5.82 13-13S22.18 2 15 2Zm0 2c.04 0 .079.002.117.007l.033.005c.03.004.06.01.088.017l.02.005c.035.01.069.02.101.032l.013.005c.031.013.06.028.09.043l.047.026a1.016 1.016 0 0 1 .1.067c.016.012.03.026.046.04a1.026 1.026 0 0 1 .096.095l.02.021c.023.03.045.06.066.091l.007.009 7 11c.009.014.016.029.024.043.022.039.042.079.059.12l.012.032c.013.037.025.075.034.114l.005.02.003.018.002.013a.929.929 0 0 1 .013.104l.002.028.001.032-.001.04v.032a.998.998 0 0 1-.01.095l-.013.06-.004.026c-.004.014-.01.027-.013.04l-.006.02-.005.014a.98.98 0 0 1-.023.064l-.005.016-.006.01a1.009 1.009 0 0 1-.022.046c-.01.02-.02.041-.033.06l-.007.013-.025.038-.01.016c-.01.012-.018.025-.027.037l-7 9a1 1 0 0 1-1.579 0l-7-9-.006-.009-.013-.018-.025-.036-.014-.022-.02-.032a.91.91 0 0 1-.008-.016l-.014-.026a1.01 1.01 0 0 1-.024-.052l-.005-.01-.006-.015a.989.989 0 0 1-.026-.07l-.008-.028-.012-.04-.005-.025a.985.985 0 0 1-.011-.06l-.005-.03a.992.992 0 0 1-.006-.066L7 16.026 7 16.005v-.031l.001-.012a.982.982 0 0 1 .008-.092l.007-.047c0-.004 0-.008.002-.013l.003-.018.006-.02a.999.999 0 0 1 .034-.114l.011-.032a.992.992 0 0 1 .08-.156l.004-.007 7-11 .006-.009c.02-.031.043-.062.066-.09l.003-.004.016-.017a.999.999 0 0 1 .125-.121l.045-.034.043-.03c.015-.01.03-.018.045-.026a.981.981 0 0 1 .042-.023l.04-.02a.994.994 0 0 1 .17-.059l.032-.008a.983.983 0 0 1 .066-.011c.013-.002.025-.005.038-.006C14.928 4 14.963 4 15 4Zm-1 18.085V20.58l-2.107-1.204L14 22.085Zm2-1.505v1.505l2.107-2.709L16 20.58Zm-5.76-4.453L14 18.275v-3.76l-3.76 1.612ZM16 18.275l3.76-2.148L16 14.515v3.76Zm-5.42-4.47L14 12.34V8.433l-3.42 5.373ZM16 12.342l3.418 1.465L16 8.434v3.907Z" fill="url(#b)"/></g><defs><linearGradient id="b" x1="0" y1="15.002" x2="30.005" y2="15.002" gradientUnits="userSpaceOnUse"><stop stop-color="#F26F21"/><stop offset=".64" stop-color="#EF522D"/><stop offset="1" stop-color="#EE4036"/></linearGradient><clipPath id="a"><path fill="#fff" d="M0 0h30v30H0z"/></clipPath></defs></svg>