<?xml version="1.0" encoding="utf-8"?>
<!-- Generator: Adobe Illustrator 26.5.0, SVG Export Plug-In . SVG Version: 6.00 Build 0)  -->
<svg version="1.1" id="Layer_1" xmlns="http://www.w3.org/2000/svg" xmlns:xlink="http://www.w3.org/1999/xlink" x="0px" y="0px"
	 viewBox="0 0 58.2 38" style="enable-background:new 0 0 58.2 38;" xml:space="preserve">
<style type="text/css">
	.st0{fill-rule:evenodd;clip-rule:evenodd;fill:url(#SVGID_1_);}
	.st1{fill-rule:evenodd;clip-rule:evenodd;fill:url(#SVGID_00000053513166444009581360000012202231000178114194_);}
	.st2{fill-rule:evenodd;clip-rule:evenodd;fill:url(#SVGID_00000008868684964427424870000013078429206142920594_);}
	.st3{fill:url(#SVGID_00000122695839552896975110000011245526766833658263_);}
	.st4{fill:url(#SVGID_00000093148005627766106020000002736847114301000894_);}
	.st5{fill:url(#SVGID_00000064315081523020918350000002047270405850114434_);}
	.st6{fill:url(#SVGID_00000090288711325049878940000007898850108286517633_);}
	.st7{fill:url(#SVGID_00000166653687582718051940000010897738015821494688_);}
	.st8{fill:url(#SVGID_00000164474480731384113210000002130946264579893432_);}
	.st9{fill-rule:evenodd;clip-rule:evenodd;fill:url(#SVGID_00000073687630923094932910000013928069393590518163_);}
</style>
<g>
	<linearGradient id="SVGID_1_" gradientUnits="userSpaceOnUse" x1="1.986084e-02" y1="12.5384" x2="44.9906" y2="12.5384">
		<stop  offset="0" style="stop-color:#F26F21"/>
		<stop  offset="0.64" style="stop-color:#EF522D"/>
		<stop  offset="1" style="stop-color:#EE4036"/>
	</linearGradient>
	<path style="fill:url(#SVGID_1_);" d="M25.1,12.5c0-3.4-1.4-6.5-3.6-8.8c2.4-1.2,5-1.8,7.7-1.8c4.4,0,8.6,1.7,11.8,4.8L39,8.7
		c-0.1,0.1-0.1,0.3,0.1,0.4c0.2,0.2,0.3,0.3,0.5,0.2l4.8-0.6c0.1,0,0.1,0,0.1-0.1c0.1-0.8,0.2-1.6,0.3-2.5c0.1-0.7,0.1-1.5,0.3-2.3
		c0-0.1-0.1-0.4-0.2-0.5c-0.2-0.2-0.4-0.2-0.4-0.1l-2,2C38.7,1.9,34.1,0,29.1,0c-3.2,0-6.4,0.8-9.2,2.4C17.8,0.9,15.3,0,12.5,0
		C5.6,0,0,5.6,0,12.5s5.6,12.5,12.5,12.5S25.1,19.4,25.1,12.5z M12.5,23.1c-5.8,0-10.6-4.8-10.6-10.6S6.7,1.9,12.5,1.9
		s10.6,4.8,10.6,10.6S18.4,23.1,12.5,23.1z"/>
	
		<linearGradient id="SVGID_00000181077720832954353350000000161812146138159784_" gradientUnits="userSpaceOnUse" x1="42.2836" y1="25.4939" x2="49.0204" y2="25.4939">
		<stop  offset="0" style="stop-color:#F26F21"/>
		<stop  offset="0.64" style="stop-color:#EF522D"/>
		<stop  offset="1" style="stop-color:#EE4036"/>
	</linearGradient>
	<path style="fill:url(#SVGID_00000181077720832954353350000000161812146138159784_);" d="M45.9,24.1c-0.3-0.1-0.5-0.1-0.7-0.2
		c-0.4-0.2-1-0.5-1-1.2c0-0.8,0.6-1.4,1.4-1.4c0.4,0,0.7,0.1,1,0.4c0.4,0.4,1,0.4,1.4,0c0.4-0.4,0.4-1,0-1.4
		c-0.4-0.4-0.9-0.7-1.4-0.8v-0.8c0-0.5-0.4-1-1-1c-0.5,0-1,0.4-1,1v0.8c-1.4,0.4-2.4,1.7-2.4,3.2c0,1.3,0.8,2.4,2.2,3
		c0.3,0.1,0.6,0.2,0.9,0.3c0.5,0.2,1,0.3,1.2,0.6c0.3,0.3,0.5,0.7,0.5,1.2c0,0.9-0.8,1.7-1.7,1.7c-0.5,0-0.9-0.2-1.2-0.5
		c-0.4-0.4-1-0.4-1.3-0.1c-0.2,0.2-0.3,0.4-0.3,0.7c0,0.3,0.1,0.5,0.2,0.7c0.5,0.6,1.2,0.9,1.9,1.1v1.2c0,0.5,0.4,1,1,1
		c0.5,0,1-0.4,1-1V31c1.4-0.5,2.5-1.8,2.5-3.4c0-1-0.4-1.9-1.1-2.6C47.3,24.5,46.6,24.3,45.9,24.1z"/>
	
		<linearGradient id="SVGID_00000155844347931535494790000006396484566865743803_" gradientUnits="userSpaceOnUse" x1="8.2588" y1="12.5384" x2="16.8178" y2="12.5384">
		<stop  offset="0" style="stop-color:#F26F21"/>
		<stop  offset="0.64" style="stop-color:#EF522D"/>
		<stop  offset="1" style="stop-color:#EE4036"/>
	</linearGradient>
	<path style="fill:url(#SVGID_00000155844347931535494790000006396484566865743803_);" d="M14.4,7.2V6.1c0-0.5-0.4-1-1-1
		c-0.5,0-0.9,0.4-0.9,1v1h-0.9v-1c0-0.5-0.3-1-0.8-1s-1,0.4-1,1v1H9.2c-0.5,0-1,0.4-1,1s0.4,1,1,1H10v7.1H9.2c-0.5,0-1,0.4-1,1
		s0.4,1,1,1H10v1c0,0.5,0.4,1,1,1s0.8-0.4,0.8-1v-1h1v1c0,0.5,0.2,1,0.7,1c0.5,0,1-0.4,1-1v-1.1c1.4-0.4,2.4-1.6,2.4-3.1
		c0-0.9-0.4-1.7-0.9-2.2c0.6-0.6,0.9-1.4,0.9-2.3C16.8,8.8,15.8,7.6,14.4,7.2z M13.6,16.1h-1.7v-2.6h1.7c0.7,0,1.3,0.6,1.3,1.3
		C14.9,15.5,14.3,16.1,13.6,16.1z M13.6,11.6h-1.7V9h1.7c0.7,0,1.3,0.6,1.3,1.3C14.9,11,14.3,11.6,13.6,11.6z"/>
	
		<linearGradient id="SVGID_00000060744437090668391650000000333745836927568813_" gradientUnits="userSpaceOnUse" x1="14.2012" y1="25.4942" x2="58.1709" y2="25.4942">
		<stop  offset="0" style="stop-color:#F26F21"/>
		<stop  offset="0.64" style="stop-color:#EF522D"/>
		<stop  offset="1" style="stop-color:#EE4036"/>
	</linearGradient>
	<path style="fill:url(#SVGID_00000060744437090668391650000000333745836927568813_);" d="M45.7,13c-6.9,0-12.5,5.6-12.5,12.5
		c0,3.3,1.3,6.3,3.4,8.5c-2.3,1.1-4.8,1.7-7.4,1.7c-4,0-7.9-1.4-10.9-4l2-2c0.1-0.1,0.1-0.3-0.1-0.4C20,29.1,19.8,29,19.7,29
		l-4.8,0.6c-0.1,0-0.1,0-0.1,0.1c-0.1,0.8-0.2,1.6-0.3,2.5c-0.1,0.7-0.1,1.5-0.3,2.3c0,0.1,0.1,0.4,0.2,0.5c0.2,0.2,0.4,0.2,0.4,0.1
		l2-2c3.4,2.9,7.7,4.6,12.3,4.6c3.1,0,6.1-0.8,8.9-2.2c2.1,1.6,4.8,2.6,7.7,2.6c6.9,0,12.5-5.6,12.5-12.5S52.6,13,45.7,13z
		 M45.7,36.1c-5.8,0-10.6-4.8-10.6-10.6c0-5.9,4.8-10.6,10.6-10.6c5.9,0,10.6,4.8,10.6,10.6C56.3,31.3,51.5,36.1,45.7,36.1z"/>
</g>
</svg>
