<svg width="30" height="30" fill="none" xmlns="http://www.w3.org/2000/svg"><path d="M24.154 3.004A3 3 0 0 1 27 6v16a3 3 0 0 1-2.13 2.87A3 3 0 0 1 22 27h-2a2.998 2.998 0 0 1-2.826-2H9.826A2.998 2.998 0 0 1 7 27H5a3 3 0 0 1-2.871-2.13A3 3 0 0 1 0 22V6a3 3 0 0 1 3-3h21l.154.004ZM3 5a1 1 0 0 0-1 1v16a1 1 0 0 0 1 1h21a1 1 0 0 0 1-1V6a1 1 0 0 0-.898-.995L24 5H3Zm20 1a1 1 0 0 1 1 1v14a1 1 0 0 1-1 1H4a1 1 0 0 1-1-1V7a1 1 0 0 1 1-1h19ZM5 20h17V8H5v12Zm6-10a4 4 0 1 1 0 8 4 4 0 0 1 0-8Zm9.102 1.005A1 1 0 0 1 21 12v4a1 1 0 0 1-1 1h-1a1 1 0 0 1-1-1v-4a1 1 0 0 1 1-1h1l.102.005ZM11 12a2 2 0 1 0 0 4 2 2 0 0 0 0-4Z" fill="url(#a)"/><defs><linearGradient id="a" x1="0" y1="15.002" x2="27.004" y2="15.002" gradientUnits="userSpaceOnUse"><stop stop-color="#F26F21"/><stop offset=".64" stop-color="#EF522D"/><stop offset="1" stop-color="#EE4036"/></linearGradient></defs></svg>