<svg width="48" height="48" fill="none" xmlns="http://www.w3.org/2000/svg"><path d="m27.35 40.295 2.35 2.29-3.248.473L25 46l-1.452-2.942-3.247-.472 2.35-2.291-.555-3.233L25 38.588l2.904-1.526-.554 3.233Zm-11.958-5.687 3.133.974-2.68 1.895.043 3.28-2.63-1.961-3.108 1.054 1.054-3.108-1.962-2.63 3.281.042 1.895-2.68.974 3.134Zm22.085-.454 3.28-.042-1.961 2.63 1.054 3.108-3.108-1.054-2.63 1.962.042-3.281-2.678-1.895 3.132-.974.974-3.133 1.895 2.68ZM9.706 22.65l3.233-.554L11.412 25l1.526 2.904-3.233-.554-2.29 2.35-.473-3.248L4 25l2.942-1.452.472-3.247 2.291 2.35Zm33.353.898L46 25l-2.942 1.452-.472 3.247-2.291-2.35-3.233.555L38.588 25l-1.526-2.904 3.233.554 2.29-2.35.473 3.248ZM15.846 12.523l2.68 1.895-3.134.974-.974 3.133-1.895-2.68-3.28.043 1.962-2.63-1.054-3.108 3.108 1.054 2.629-1.962-.042 3.281Zm20.896-1.319 3.108-1.054-1.054 3.108 1.962 2.63-3.281-.042-1.895 2.68-.974-3.134-3.133-.974 2.68-1.895-.043-3.28 2.63 1.961Zm-10.29-4.262 3.247.472-2.35 2.291.555 3.233L25 11.412l-2.904 1.526.554-3.233-2.35-2.29 3.248-.473L25 4l1.452 2.942Z" fill="url(#a)"/><defs><linearGradient id="a" x1="4" y1="25.003" x2="46.007" y2="25.003" gradientUnits="userSpaceOnUse"><stop stop-color="#F26F21"/><stop offset=".64" stop-color="#EF522D"/><stop offset="1" stop-color="#EE4036"/></linearGradient></defs></svg>