<svg width="30" height="30" fill="none" xmlns="http://www.w3.org/2000/svg"><path d="M7.5 11.25c2.063 0 3.094 0 3.734-.641.641-.64.641-1.671.641-3.734 0-2.063 0-3.094-.641-3.734C10.594 2.5 9.563 2.5 7.5 2.5c-2.063 0-3.094 0-3.734.641-.641.64-.641 1.671-.641 3.734 0 2.063 0 3.094.641 3.734.64.641 1.671.641 3.734.641Zm0 0v6.25m0 0c-.857 0-1.55.69-2.929 2.071C3.19 20.951 2.5 21.642 2.5 22.5c0 .858.69 1.55 2.071 2.929C5.951 26.81 6.643 27.5 7.5 27.5c.857 0 1.55-.69 2.929-2.071 1.381-1.38 2.071-2.071 2.071-2.929m-5-5c.857 0 1.549.69 2.929 2.071C11.81 20.95 12.5 21.642 12.5 22.5m0 0h6.25m0 0c0-2.063 0-3.094.641-3.734.64-.641 1.672-.641 3.734-.641 2.063 0 3.094 0 3.734.641.641.64.641 1.672.641 3.734 0 2.063 0 3.094-.641 3.734-.64.641-1.672.641-3.734.641-2.063 0-3.094 0-3.734-.641-.641-.64-.641-1.672-.641-3.734Z" stroke="url(#a)" stroke-width="1.5" stroke-linecap="round" stroke-linejoin="round"/><defs><linearGradient id="a" x1="2.5" y1="15.002" x2="27.504" y2="15.002" gradientUnits="userSpaceOnUse"><stop stop-color="#F26F21"/><stop offset=".64" stop-color="#EF522D"/><stop offset="1" stop-color="#EE4036"/></linearGradient></defs></svg>