<svg width="30" height="30" fill="none" xmlns="http://www.w3.org/2000/svg"><g clip-path="url(#a)"><path d="M21 2a3 3 0 0 1 3 3v5h1V6a1 1 0 0 1 2 0v4a3 3 0 0 1 3 3v2a3 3 0 0 1-3 3h-3v7a3 3 0 0 1-3 3H3a3 3 0 0 1-3-3V5a3 3 0 0 1 3-3h18ZM3 4a1 1 0 0 0-1 1v20a1 1 0 0 0 1 1h18a1 1 0 0 0 1-1V5a1 1 0 0 0-1-1H3Zm15 3a3 3 0 0 1 3 3v3a3 3 0 0 1-3 3H6a3 3 0 0 1-3-3v-3a3 3 0 0 1 3-3h12Zm6 9h3a1 1 0 0 0 1-1v-2a1 1 0 0 0-1-1h-3v4ZM6 9a1 1 0 0 0-1 1v3a1 1 0 0 0 1 1h2V9H6Zm4 5h4V9h-4v5Zm6 0h2a1 1 0 0 0 1-1v-3a1 1 0 0 0-1-1h-2v5Z" fill="url(#b)"/></g><defs><linearGradient id="b" x1="0" y1="15.002" x2="30.005" y2="15.002" gradientUnits="userSpaceOnUse"><stop stop-color="#F26F21"/><stop offset=".64" stop-color="#EF522D"/><stop offset="1" stop-color="#EE4036"/></linearGradient><clipPath id="a"><path fill="#fff" d="M0 0h30v30H0z"/></clipPath></defs></svg>