<svg width="48" height="48" fill="none" xmlns="http://www.w3.org/2000/svg"><path d="M30 3a1 1 0 1 1 0 2h-5v4.03c8.923.518 16 7.917 16 16.97 0 9.389-7.611 17-17 17S7 35.389 7 26c0-9.053 7.077-16.452 16-16.97V5h-5a1 1 0 1 1 0-2h12Zm-6 8c-8.284 0-15 6.716-15 15 0 8.284 6.716 15 15 15 8.284 0 15-6.716 15-15 0-8.284-6.716-15-15-15Zm0 8a1 1 0 0 1 1 1v5h8a1 1 0 1 1 0 2h-9a1 1 0 0 1-1-1v-6a1 1 0 0 1 1-1Z" fill="url(#a)"/><defs><linearGradient id="a" x1="7" y1="23.003" x2="41.005" y2="23.003" gradientUnits="userSpaceOnUse"><stop stop-color="#F26F21"/><stop offset=".64" stop-color="#EF522D"/><stop offset="1" stop-color="#EE4036"/></linearGradient></defs></svg>