<svg width="48" height="48" fill="none" xmlns="http://www.w3.org/2000/svg"><mask id="a" style="mask-type:luminance" maskUnits="userSpaceOnUse" x="0" y="0" width="48" height="48"><path d="M0 0h48v48H0V0Z" fill="#fff"/></mask><g mask="url(#a)" stroke-width="1.5" stroke-miterlimit="10" stroke-linecap="round" stroke-linejoin="round"><path d="M8.36 9.269a22.406 22.406 0 0 1 2.586-2.518" stroke="url(#b)"/><path d="M3.41 18.95a22.27 22.27 0 0 1 2.796-6.773" stroke="url(#c)"/><path d="M10.806 41.134A22.333 22.333 0 0 1 2.854 23.22" stroke="url(#d)"/><path d="M35.84 43.544a22.044 22.044 0 0 1-10.77 2.793 22.042 22.042 0 0 1-10.74-2.775" stroke="url(#e)"/><path d="M43.917 12.154A22.313 22.313 0 0 1 47.297 24a22.333 22.333 0 0 1-7.944 17.115" stroke="url(#f)"/><path d="M38.995 6.59a22.4 22.4 0 0 1 2.318 2.162" stroke="url(#g)"/><path d="M14.47 4.361a22.045 22.045 0 0 1 10.6-2.698c3.739 0 7.263.928 10.356 2.567" stroke="url(#h)"/><path d="M26.93 9.472a31.296 31.296 0 0 1 8.225-3.6" stroke="url(#i)"/><path d="M17.823 18.085a31.633 31.633 0 0 1 5.657-6.125" stroke="url(#j)"/><path d="M12.263 40.201a31.632 31.632 0 0 1 3.323-18.437" stroke="url(#k)"/><path d="M23.207 9.472a31.308 31.308 0 0 0-8.526-3.682" stroke="url(#l)"/><path d="M35.37 23.464A31.737 31.737 0 0 0 26.66 11.96" stroke="url(#m)"/><path d="M37.772 31.716a31.662 31.662 0 0 0-.924-4.225" stroke="url(#n)"/><path d="M37.862 40.308c.186-1.482.268-2.974.245-4.468" stroke="url(#o)"/><path d="M14.613 19.477a43.042 43.042 0 0 0-9.701 1.06" stroke="url(#p)"/><path d="M34.325 24.4a43.008 43.008 0 0 0-15.453-4.688" stroke="url(#q)"/><path d="M45.503 32.806a43.328 43.328 0 0 0-7.49-6.236" stroke="url(#r)"/><path d="M37.258 23.587a43.221 43.221 0 0 0 4.87-11.022" stroke="url(#s)"/><path d="M14.612 41.682A43.335 43.335 0 0 0 34.828 27.1" stroke="url(#t)"/><path d="M25.068 12.674a2.145 2.145 0 0 1-2.137-2.148c0-1.185.959-2.148 2.137-2.148 1.179 0 2.138.963 2.138 2.148a2.145 2.145 0 0 1-2.138 2.148Z" stroke="url(#u)"/><path d="M16.75 22.112a2.145 2.145 0 0 1-2.138-2.148c0-1.184.96-2.148 2.138-2.148 1.179 0 2.137.964 2.137 2.148a2.145 2.145 0 0 1-2.137 2.148Z" stroke="url(#v)"/><path d="M36.191 27.595a2.145 2.145 0 0 1-2.137-2.148c0-1.185.959-2.148 2.137-2.148 1.179 0 2.138.963 2.138 2.148a2.145 2.145 0 0 1-2.138 2.148Z" stroke="url(#w)"/><path d="M12.583 44.474a2.145 2.145 0 0 1-2.137-2.148c0-1.185.959-2.148 2.137-2.148 1.18 0 2.138.963 2.138 2.148a2.145 2.145 0 0 1-2.138 2.148Z" stroke="url(#x)"/><path d="M37.677 44.596a2.145 2.145 0 0 1-2.137-2.148c0-1.185.958-2.148 2.137-2.148s2.138.963 2.138 2.148a2.145 2.145 0 0 1-2.138 2.148Z" stroke="url(#y)"/><path d="M42.661 12.565a2.145 2.145 0 0 1-2.138-2.148c0-1.184.96-2.148 2.138-2.148 1.179 0 2.138.964 2.138 2.148a2.145 2.145 0 0 1-2.138 2.148Z" stroke="url(#z)"/><path d="M37.234 7.52a2.145 2.145 0 0 1-2.137-2.148c0-1.184.959-2.148 2.137-2.148 1.179 0 2.138.964 2.138 2.148a2.145 2.145 0 0 1-2.138 2.149Z" stroke="url(#A)"/><path d="M12.583 7.52a2.145 2.145 0 0 1-2.137-2.148c0-1.184.959-2.148 2.137-2.148 1.18 0 2.138.964 2.138 2.148a2.145 2.145 0 0 1-2.138 2.149Z" stroke="url(#B)"/><path d="M2.84 23.219A2.145 2.145 0 0 1 .704 21.07c0-1.185.959-2.148 2.138-2.148 1.178 0 2.137.963 2.137 2.148a2.145 2.145 0 0 1-2.137 2.148Z" stroke="url(#C)"/></g><defs><linearGradient id="b" x1="8.36" y1="8.009" x2="10.946" y2="8.009" gradientUnits="userSpaceOnUse"><stop stop-color="#F26F21"/><stop offset=".64" stop-color="#EF522D"/><stop offset="1" stop-color="#EE4036"/></linearGradient><linearGradient id="c" x1="3.411" y1="15.563" x2="6.206" y2="15.563" gradientUnits="userSpaceOnUse"><stop stop-color="#F26F21"/><stop offset=".64" stop-color="#EF522D"/><stop offset="1" stop-color="#EE4036"/></linearGradient><linearGradient id="d" x1="2.84" y1="32.175" x2="10.807" y2="32.175" gradientUnits="userSpaceOnUse"><stop stop-color="#F26F21"/><stop offset=".64" stop-color="#EF522D"/><stop offset="1" stop-color="#EE4036"/></linearGradient><linearGradient id="e" x1="14.331" y1="44.94" x2="35.844" y2="44.94" gradientUnits="userSpaceOnUse"><stop stop-color="#F26F21"/><stop offset=".64" stop-color="#EF522D"/><stop offset="1" stop-color="#EE4036"/></linearGradient><linearGradient id="f" x1="39.353" y1="26.632" x2="47.299" y2="26.632" gradientUnits="userSpaceOnUse"><stop stop-color="#F26F21"/><stop offset=".64" stop-color="#EF522D"/><stop offset="1" stop-color="#EE4036"/></linearGradient><linearGradient id="g" x1="38.995" y1="7.67" x2="41.313" y2="7.67" gradientUnits="userSpaceOnUse"><stop stop-color="#F26F21"/><stop offset=".64" stop-color="#EF522D"/><stop offset="1" stop-color="#EE4036"/></linearGradient><linearGradient id="h" x1="14.47" y1="3.012" x2="35.429" y2="3.012" gradientUnits="userSpaceOnUse"><stop stop-color="#F26F21"/><stop offset=".64" stop-color="#EF522D"/><stop offset="1" stop-color="#EE4036"/></linearGradient><linearGradient id="i" x1="26.93" y1="7.671" x2="35.156" y2="7.671" gradientUnits="userSpaceOnUse"><stop stop-color="#F26F21"/><stop offset=".64" stop-color="#EF522D"/><stop offset="1" stop-color="#EE4036"/></linearGradient><linearGradient id="j" x1="17.823" y1="15.022" x2="23.481" y2="15.022" gradientUnits="userSpaceOnUse"><stop stop-color="#F26F21"/><stop offset=".64" stop-color="#EF522D"/><stop offset="1" stop-color="#EE4036"/></linearGradient><linearGradient id="k" x1="12.027" y1="30.981" x2="15.586" y2="30.981" gradientUnits="userSpaceOnUse"><stop stop-color="#F26F21"/><stop offset=".64" stop-color="#EF522D"/><stop offset="1" stop-color="#EE4036"/></linearGradient><linearGradient id="l" x1="14.681" y1="7.631" x2="23.209" y2="7.631" gradientUnits="userSpaceOnUse"><stop stop-color="#F26F21"/><stop offset=".64" stop-color="#EF522D"/><stop offset="1" stop-color="#EE4036"/></linearGradient><linearGradient id="m" x1="26.659" y1="17.711" x2="35.372" y2="17.711" gradientUnits="userSpaceOnUse"><stop stop-color="#F26F21"/><stop offset=".64" stop-color="#EF522D"/><stop offset="1" stop-color="#EE4036"/></linearGradient><linearGradient id="n" x1="36.848" y1="29.603" x2="37.772" y2="29.603" gradientUnits="userSpaceOnUse"><stop stop-color="#F26F21"/><stop offset=".64" stop-color="#EF522D"/><stop offset="1" stop-color="#EE4036"/></linearGradient><linearGradient id="o" x1="37.862" y1="38.074" x2="38.111" y2="38.074" gradientUnits="userSpaceOnUse"><stop stop-color="#F26F21"/><stop offset=".64" stop-color="#EF522D"/><stop offset="1" stop-color="#EE4036"/></linearGradient><linearGradient id="p" x1="4.912" y1="20.007" x2="14.614" y2="20.007" gradientUnits="userSpaceOnUse"><stop stop-color="#F26F21"/><stop offset=".64" stop-color="#EF522D"/><stop offset="1" stop-color="#EE4036"/></linearGradient><linearGradient id="q" x1="18.872" y1="22.055" x2="34.328" y2="22.055" gradientUnits="userSpaceOnUse"><stop stop-color="#F26F21"/><stop offset=".64" stop-color="#EF522D"/><stop offset="1" stop-color="#EE4036"/></linearGradient><linearGradient id="r" x1="38.012" y1="29.688" x2="45.504" y2="29.688" gradientUnits="userSpaceOnUse"><stop stop-color="#F26F21"/><stop offset=".64" stop-color="#EF522D"/><stop offset="1" stop-color="#EE4036"/></linearGradient><linearGradient id="s" x1="37.258" y1="18.075" x2="42.129" y2="18.075" gradientUnits="userSpaceOnUse"><stop stop-color="#F26F21"/><stop offset=".64" stop-color="#EF522D"/><stop offset="1" stop-color="#EE4036"/></linearGradient><linearGradient id="t" x1="14.612" y1="34.39" x2="34.831" y2="34.39" gradientUnits="userSpaceOnUse"><stop stop-color="#F26F21"/><stop offset=".64" stop-color="#EF522D"/><stop offset="1" stop-color="#EE4036"/></linearGradient><linearGradient id="u" x1="22.931" y1="10.525" x2="27.206" y2="10.525" gradientUnits="userSpaceOnUse"><stop stop-color="#F26F21"/><stop offset=".64" stop-color="#EF522D"/><stop offset="1" stop-color="#EE4036"/></linearGradient><linearGradient id="v" x1="14.612" y1="19.964" x2="18.888" y2="19.964" gradientUnits="userSpaceOnUse"><stop stop-color="#F26F21"/><stop offset=".64" stop-color="#EF522D"/><stop offset="1" stop-color="#EE4036"/></linearGradient><linearGradient id="w" x1="34.054" y1="25.446" x2="38.33" y2="25.446" gradientUnits="userSpaceOnUse"><stop stop-color="#F26F21"/><stop offset=".64" stop-color="#EF522D"/><stop offset="1" stop-color="#EE4036"/></linearGradient><linearGradient id="x" x1="10.446" y1="42.325" x2="14.722" y2="42.325" gradientUnits="userSpaceOnUse"><stop stop-color="#F26F21"/><stop offset=".64" stop-color="#EF522D"/><stop offset="1" stop-color="#EE4036"/></linearGradient><linearGradient id="y" x1="35.54" y1="42.447" x2="39.816" y2="42.447" gradientUnits="userSpaceOnUse"><stop stop-color="#F26F21"/><stop offset=".64" stop-color="#EF522D"/><stop offset="1" stop-color="#EE4036"/></linearGradient><linearGradient id="z" x1="40.523" y1="10.417" x2="44.799" y2="10.417" gradientUnits="userSpaceOnUse"><stop stop-color="#F26F21"/><stop offset=".64" stop-color="#EF522D"/><stop offset="1" stop-color="#EE4036"/></linearGradient><linearGradient id="A" x1="35.097" y1="5.372" x2="39.373" y2="5.372" gradientUnits="userSpaceOnUse"><stop stop-color="#F26F21"/><stop offset=".64" stop-color="#EF522D"/><stop offset="1" stop-color="#EE4036"/></linearGradient><linearGradient id="B" x1="10.446" y1="5.372" x2="14.722" y2="5.372" gradientUnits="userSpaceOnUse"><stop stop-color="#F26F21"/><stop offset=".64" stop-color="#EF522D"/><stop offset="1" stop-color="#EE4036"/></linearGradient><linearGradient id="C" x1=".703" y1="21.07" x2="4.979" y2="21.07" gradientUnits="userSpaceOnUse"><stop stop-color="#F26F21"/><stop offset=".64" stop-color="#EF522D"/><stop offset="1" stop-color="#EE4036"/></linearGradient></defs></svg>