<?xml version="1.0" encoding="utf-8"?>
<!-- Generator: Adobe Illustrator 26.5.0, SVG Export Plug-In . SVG Version: 6.00 Build 0)  -->
<svg version="1.1" id="Layer_1" xmlns="http://www.w3.org/2000/svg" xmlns:xlink="http://www.w3.org/1999/xlink" x="0px" y="0px"
	 viewBox="0 0 53.6 38" style="enable-background:new 0 0 53.6 38;" xml:space="preserve">
<style type="text/css">
	.st0{fill-rule:evenodd;clip-rule:evenodd;fill:url(#SVGID_1_);}
	.st1{fill-rule:evenodd;clip-rule:evenodd;fill:url(#SVGID_00000179646993873711951460000015110585026795736981_);}
	.st2{fill-rule:evenodd;clip-rule:evenodd;fill:url(#SVGID_00000105425853517177718010000015480684561783649968_);}
	.st3{fill:url(#SVGID_00000150062369902180921230000006636082732767737009_);}
	.st4{fill:url(#SVGID_00000062188250581964780510000015774552691693918097_);}
	.st5{fill:url(#SVGID_00000156552387137529229800000014627018421450354330_);}
	.st6{fill:url(#SVGID_00000143584961322751000710000006664766056846839951_);}
	.st7{fill:url(#SVGID_00000066503096356025576850000014546491468753802920_);}
	.st8{fill:url(#SVGID_00000080202339013513391140000006690295630078524818_);}
	.st9{fill-rule:evenodd;clip-rule:evenodd;fill:url(#SVGID_00000047061041241671026040000012084741792409477290_);}
</style>
<g>
	<linearGradient id="SVGID_1_" gradientUnits="userSpaceOnUse" x1="0" y1="18.9925" x2="53.6319" y2="18.9925">
		<stop  offset="0" style="stop-color:#F26F21"/>
		<stop  offset="0.64" style="stop-color:#EF522D"/>
		<stop  offset="1" style="stop-color:#EE4036"/>
	</linearGradient>
	<path style="fill:url(#SVGID_1_);" d="M53.2,12L27,0.1C26.9,0,26.8,0,26.7,0c-0.1,0-0.2,0-0.3,0c-2,1-23.2,10.5-26.1,11.9
		C0.1,12-0.1,12.3,0,12.6c0.1,0.3,0.3,0.5,0.6,0.5h3.8v2.1c0,0.3,0.3,0.6,0.6,0.6h3.9v14H3.6c-0.3,0-0.6,0.3-0.6,0.6v3.9H1.4
		c-0.3,0-0.6,0.3-0.6,0.6v2.6c0,0.3,0.3,0.6,0.6,0.6h51.1c0.3,0,0.6-0.3,0.6-0.6v-2.6c0-0.3-0.3-0.6-0.6-0.6H51v-3.8
		c0-0.3-0.3-0.6-0.6-0.6h-5.5V15.7h3.8c0.3,0,0.6-0.3,0.6-0.6v-2.1H53c0.2,0,0.5-0.2,0.6-0.4C53.6,12.4,53.5,12.1,53.2,12z
		 M48.9,34.2H5.1v-3.3L48.9,31V34.2z M23,15.7v14.1h-6.5V15.7H23z M15.4,15.7v14h-4.4v-14H15.4z M37.2,15.7v14.1h-6.5V15.7H37.2z
		 M29.5,15.7v14h-5.3v-14H29.5z M42.8,29.7h-4.5v-14h4.5V29.7z M47.2,14.6h-2.9h-6.5c0,0,0,0,0,0c0,0,0,0,0,0h-7.6H30h-6.4
		c0,0,0,0,0,0c0,0,0,0,0,0H16h-0.1H9.4c0,0,0,0,0,0c0,0,0,0,0,0H6.4v-1.5h40.8V14.6z M3.3,11.8C5.2,11,24.1,2.4,26.7,1.2l23.5,10.6
		H3.3z"/>
	
		<linearGradient id="SVGID_00000008127694248495963290000010778167275508607141_" gradientUnits="userSpaceOnUse" x1="17.4808" y1="6.8357" x2="36.1517" y2="6.8357">
		<stop  offset="0" style="stop-color:#F26F21"/>
		<stop  offset="0.64" style="stop-color:#EF522D"/>
		<stop  offset="1" style="stop-color:#EE4036"/>
	</linearGradient>
	<path style="fill:url(#SVGID_00000008127694248495963290000010778167275508607141_);" d="M26.5,4.3C25,5,19.4,7.6,17.9,8.2
		c-0.3,0.1-0.5,0.4-0.4,0.7c0,0.3,0.3,0.5,0.6,0.5h17.5c0.3,0,0.6-0.2,0.6-0.5c0-0.3-0.1-0.6-0.4-0.7L27,4.3
		C26.8,4.2,26.7,4.2,26.5,4.3z"/>
</g>
</svg>
