<svg width="48" height="48" fill="none" xmlns="http://www.w3.org/2000/svg"><path d="M40 37a1 1 0 1 1 0 2H8a1 1 0 0 1 0-2h32Zm0-4a1 1 0 1 1 0 2H8a1 1 0 1 1 0-2h32Zm0-24a3 3 0 0 1 3 3v16a3 3 0 0 1-3 3H8a3 3 0 0 1-3-3V12a3 3 0 0 1 3-3h32ZM8 11a1 1 0 0 0-1 1v16a1 1 0 0 0 1 1h32a1 1 0 0 0 1-1V12a1 1 0 0 0-1-1H8Zm16 2a7 7 0 1 1 0 14 7 7 0 0 1 0-14Zm0 2a5 5 0 1 0 0 10 5 5 0 0 0 0-10Zm-13 3a2 2 0 1 1 0 4 2 2 0 0 1 0-4Zm26 0a2 2 0 1 1 0 4 2 2 0 0 1 0-4Z" fill="url(#a)"/><defs><linearGradient id="a" x1="5" y1="24.002" x2="43.006" y2="24.002" gradientUnits="userSpaceOnUse"><stop stop-color="#F26F21"/><stop offset=".64" stop-color="#EF522D"/><stop offset="1" stop-color="#EE4036"/></linearGradient></defs></svg>