<svg width="30" height="30" fill="none" xmlns="http://www.w3.org/2000/svg"><path d="M17 2a3 3 0 0 1 3 3v1h5a3 3 0 0 1 3 3v16a3 3 0 0 1-3 3H3a3 3 0 0 1-3-3V9a3 3 0 0 1 3-3h5V5a3 3 0 0 1 3-3h6Zm1 15.981V18a4 4 0 0 1-8 0v-.019l-8-4.307V25a1 1 0 0 0 1 1h22a1 1 0 0 0 1-1V13.674l-8 4.307ZM14 16a2 2 0 1 0 0 4 2 2 0 0 0 0-4ZM3 8a1 1 0 0 0-1 1v2.402L10.536 16a3.998 3.998 0 0 1 6.927 0L26 11.402V9a1 1 0 0 0-1-1H3Zm8-4a1 1 0 0 0-1 1v1h8V5a1 1 0 0 0-1-1h-6Z" fill="url(#a)"/><defs><linearGradient id="a" x1="0" y1="15.002" x2="28.005" y2="15.002" gradientUnits="userSpaceOnUse"><stop stop-color="#F26F21"/><stop offset=".64" stop-color="#EF522D"/><stop offset="1" stop-color="#EE4036"/></linearGradient></defs></svg>