<svg width="48" height="48" fill="none" xmlns="http://www.w3.org/2000/svg"><path d="M16 8a1 1 0 0 1 1 1v1.174c.61.216 1.13.622 1.487 1.15l7.64-2.154a1 1 0 1 1 .543 1.925l-.67.188V15c0 .066-.007.13-.02.193.651.222 1.237.672 1.625 1.35l2.263 3.96c.09.158.131.328.131.497H30a4.999 4.999 0 0 1-5 5l-.246-.006a4.998 4.998 0 0 1-1.438-.286l-.23-.089a4.998 4.998 0 0 1-1.443-.914l-.178-.17A5 5 0 0 1 20 21h.001c0-.169.041-.34.13-.496l2.264-3.961a2.957 2.957 0 0 1 1.624-1.35A1.003 1.003 0 0 1 24 15v-3.153l-5.013 1.413A2.998 2.998 0 0 1 17 15.825v17.238a8 8 0 0 1 4.372 2.01l.285.27a7.996 7.996 0 0 1 1.574 2.236l.16.36c.143.345.26.7.353 1.061H31a1 1 0 1 1 0 2H1a1 1 0 1 1 0-2h7.256c.093-.36.21-.716.353-1.062l.16-.359a7.998 7.998 0 0 1 1.574-2.236l.285-.27a7.998 7.998 0 0 1 2.31-1.464l.368-.141A8.002 8.002 0 0 1 15 33.062V15.826a3.004 3.004 0 0 1-1.494-1.158L8 16.143V20c0 .066-.007.13-.02.193.651.222 1.237.672 1.624 1.35l2.264 3.96c.09.158.131.328.131.497H12a4.999 4.999 0 0 1-5 5l-.246-.006a4.998 4.998 0 0 1-1.438-.286l-.23-.089a4.999 4.999 0 0 1-1.443-.914l-.178-.17A5 5 0 0 1 2 26h.001c0-.169.041-.34.13-.496l2.265-3.961a2.958 2.958 0 0 1 1.623-1.35A1.007 1.007 0 0 1 6 20v-3.322l-.627.169a1 1 0 0 1-.518-1.932l8.158-2.186A3 3 0 0 1 15 10.174V9a1 1 0 0 1 1-1Zm0 27a6 6 0 0 0-5.656 4h11.312a5.983 5.983 0 0 0-3.36-3.543A6 6 0 0 0 16 35ZM4.879 28.121a3 3 0 0 0 4.242 0c.039-.039.074-.08.11-.121H4.77c.036.04.071.082.11.121Zm2.99-5.586a1 1 0 0 0-1.737 0L4.152 26h5.697l-1.98-3.465Zm15.01.586a3 3 0 0 0 4.242 0c.039-.039.074-.08.11-.121H22.77c.036.04.071.082.11.121Zm2.99-5.586a1 1 0 0 0-1.737 0L22.152 21h5.697l-1.98-3.465ZM16 12a1 1 0 1 0 0 2 1 1 0 0 0 0-2Z" fill="url(#a)"/><defs><linearGradient id="a" x1="0" y1="24.503" x2="32.005" y2="24.503" gradientUnits="userSpaceOnUse"><stop stop-color="#F26F21"/><stop offset=".64" stop-color="#EF522D"/><stop offset="1" stop-color="#EE4036"/></linearGradient></defs></svg>