<svg width="30" height="30" fill="none" xmlns="http://www.w3.org/2000/svg"><path d="M11 5c1.41 0 2.758.268 3.997.752.1-.04.202-.078.304-.114a1 1 0 0 1 1.335.916A10.992 10.992 0 0 1 22 16c0 4.015-2.152 7.525-5.364 9.445a.995.995 0 0 1-1.335.917 10.963 10.963 0 0 1-.304-.115c-1.24.484-2.586.753-3.997.753-6.075 0-11-4.925-11-11S4.925 5 11 5Zm8.786 19.966a1 1 0 0 1 .172 1.993 11.127 11.127 0 0 1-1.71.016 1 1 0 0 1 .134-1.995 9.165 9.165 0 0 0 1.404-.014Zm4.376-1.592a1 1 0 1 1 1.149 1.637 10.99 10.99 0 0 1-1.66.96 1 1 0 0 1-.847-1.812 8.995 8.995 0 0 0 1.358-.785Zm-13.161-4.587h-.02c-2.447.009-4.87 1.793-5.845 4.037A8.962 8.962 0 0 0 11 25c2.24 0 4.287-.82 5.862-2.175-.975-2.244-3.395-4.03-5.842-4.039l-.019.001Zm16.158 1.017a1 1 0 0 1 1.813.846 10.99 10.99 0 0 1-.961 1.66 1 1 0 1 1-1.637-1.148c.3-.427.563-.882.785-1.358ZM11 7a9 9 0 0 0-7.309 14.25 9.143 9.143 0 0 1 4.228-3.8 4.395 4.395 0 0 1-1.228-3.035c0-2.404 1.93-4.415 4.31-4.415 2.413 0 4.351 2.002 4.351 4.415a4.362 4.362 0 0 1-1.233 3.05 9.143 9.143 0 0 1 4.188 3.785A8.955 8.955 0 0 0 20 16a9 9 0 0 0-9-9Zm17.876 7.132a1 1 0 0 1 1.083.91 11.127 11.127 0 0 1 0 1.916 1 1 0 0 1-1.993-.172 9.114 9.114 0 0 0 0-1.572 1 1 0 0 1 .91-1.082ZM11.001 12c-1.224 0-2.31 1.063-2.31 2.415 0 1.296 1.07 2.364 2.297 2.371h.025a2.356 2.356 0 0 0 2.34-2.371C13.352 13.072 12.274 12 11 12Zm15.617-2.555a1 1 0 0 1 1.393.244c.366.522.688 1.077.96 1.66a1 1 0 0 1-1.812.847 8.995 8.995 0 0 0-.785-1.358 1 1 0 0 1 .244-1.393Zm-4.297-2.933a1 1 0 0 1 1.33-.484c.583.273 1.138.595 1.66.961a1 1 0 1 1-1.149 1.637 8.992 8.992 0 0 0-1.358-.785 1 1 0 0 1-.483-1.33ZM19 5c.323 0 .642.014.958.041a1 1 0 0 1-.172 1.993 9.126 9.126 0 0 0-1.404-.013 1 1 0 1 1-.135-1.996c.249-.016.5-.025.753-.025Z" fill="url(#a)"/><defs><linearGradient id="a" x1="0" y1="16.002" x2="30.005" y2="16.002" gradientUnits="userSpaceOnUse"><stop stop-color="#F26F21"/><stop offset=".64" stop-color="#EF522D"/><stop offset="1" stop-color="#EE4036"/></linearGradient></defs></svg>