<svg width="48" height="48" fill="none" xmlns="http://www.w3.org/2000/svg"><path d="M24 4c10.493 0 19 8.507 19 19 0 4.194-1.36 8.07-3.662 11.213l6.36 6.358a2.938 2.938 0 0 1-4.154 4.155L35.18 38.36A18.912 18.912 0 0 1 24 42C13.507 42 5 33.493 5 23S13.507 4 24 4Zm12.808 33.161 6.15 6.15a.937.937 0 0 0 1.325-1.325l-6.15-6.15-1.325 1.325ZM24 6C14.611 6 7 13.611 7 23s7.611 17 17 17 17-7.611 17-17S33.389 6 24 6Zm0 10c3.172 0 6.093.7 8.257 1.88C34.383 19.04 36 20.806 36 23s-1.617 3.96-3.743 5.12C30.093 29.3 27.172 30 24 30c-3.172 0-6.093-.7-8.257-1.88C13.617 26.96 12 25.194 12 23s1.617-3.96 3.743-5.12C17.907 16.7 20.828 16 24 16Zm0 2c-2.903 0-5.483.645-7.3 1.636C14.846 20.648 14 21.88 14 23c0 1.12.845 2.352 2.7 3.364C18.517 27.355 21.097 28 24 28c2.903 0 5.483-.645 7.3-1.636C33.154 25.352 34 24.12 34 23c0-1.12-.846-2.352-2.7-3.364C29.483 18.645 26.903 18 24 18Zm0 1a4 4 0 1 1 0 8 4 4 0 0 1 0-8Zm0 2a2 2 0 1 0 0 4 2 2 0 0 0 0-4Z" fill="url(#a)"/><defs><linearGradient id="a" x1="5" y1="24.796" x2="46.563" y2="24.796" gradientUnits="userSpaceOnUse"><stop stop-color="#F26F21"/><stop offset=".64" stop-color="#EF522D"/><stop offset="1" stop-color="#EE4036"/></linearGradient></defs></svg>