<svg width="42" height="29" viewBox="0 0 42 29" fill="none" xmlns="http://www.w3.org/2000/svg">
<path d="M39.0005 0C40.6571 0.000264403 42.0005 1.34331 42.0005 3V23C42.0005 24.6049 40.7397 25.9155 39.1548 25.9961L39.0005 26L38.9966 26.1543C38.9163 27.7393 37.6054 28.9998 36.0005 29H3.00049C1.34364 29 0.000488313 27.6569 0.000488281 26V6C0.000513247 4.39509 1.26033 3.08447 2.84521 3.00391L3.00049 3C3.00049 1.34315 4.34363 0 6.00049 0H39.0005ZM3.00049 5C2.44822 5 2.00051 5.44774 2.00049 6V26C2.00049 26.5523 2.4482 27 3.00049 27H36.0005C36.5526 26.9998 37.0005 26.5521 37.0005 26V6C37.0005 5.44789 36.5525 5.00025 36.0005 5H3.00049ZM12.0005 23C12.5526 23.0002 13.0005 23.4479 13.0005 24C13.0005 24.5521 12.5526 24.9998 12.0005 25H5.00049C4.4482 25 4.00049 24.5523 4.00049 24C4.00049 23.4477 4.44821 23 5.00049 23H12.0005ZM15.0005 23C15.5526 23.0002 16.0005 23.4479 16.0005 24C16.0005 24.5521 15.5526 24.9998 15.0005 25C14.4482 25 14.0005 24.5523 14.0005 24C14.0005 23.4477 14.4482 23 15.0005 23ZM18.0005 23C18.5526 23.0002 19.0005 23.4479 19.0005 24C19.0005 24.5521 18.5526 24.9998 18.0005 25C17.4482 25 17.0005 24.5523 17.0005 24C17.0005 23.4477 17.4482 23 18.0005 23ZM6.00049 2C5.4482 2 5.00049 2.44772 5.00049 3H36.0005C37.6571 3.00025 39.0005 4.34332 39.0005 6V24L39.1021 23.9951C39.6064 23.944 40.0005 23.5178 40.0005 23V3C40.0005 2.44788 39.5525 2.00026 39.0005 2H6.00049ZM10.0005 20C10.5526 20.0002 11.0005 20.4479 11.0005 21C11.0005 21.5521 10.5526 21.9998 10.0005 22H5.00049C4.4482 22 4.00049 21.5523 4.00049 21C4.00049 20.4477 4.44821 20 5.00049 20H10.0005ZM18.0005 20C18.5526 20.0002 19.0005 20.4479 19.0005 21C19.0005 21.5521 18.5526 21.9998 18.0005 22H13.0005C12.4482 22 12.0005 21.5523 12.0005 21C12.0005 20.4477 12.4482 20 13.0005 20H18.0005ZM26.0005 20C26.5526 20.0002 27.0005 20.4479 27.0005 21C27.0005 21.5521 26.5526 21.9998 26.0005 22H21.0005C20.4482 22 20.0005 21.5523 20.0005 21C20.0005 20.4477 20.4482 20 21.0005 20H26.0005ZM34.0005 20C34.5526 20.0002 35.0005 20.4479 35.0005 21C35.0005 21.5521 34.5526 21.9998 34.0005 22H29.0005C28.4482 22 28.0005 21.5523 28.0005 21C28.0005 20.4477 28.4482 20 29.0005 20H34.0005ZM9.00049 7C10.1048 7.00025 11.0005 7.89559 11.0005 9C11.0005 10.1044 10.1048 10.9998 9.00049 11C8.40205 11 7.86603 10.7359 7.49951 10.3193C7.1331 10.7355 6.59849 10.9999 6.00049 11C4.89592 11 4.00049 10.1046 4.00049 9C4.00049 7.89543 4.89592 7 6.00049 7C6.59823 7.00013 7.13311 7.26389 7.49951 7.67969C7.86602 7.26348 8.40232 7 9.00049 7ZM34.0005 8C34.5526 8.00025 35.0005 8.44787 35.0005 9C35.0005 9.55213 34.5526 9.99975 34.0005 10H29.0005C28.4482 10 28.0005 9.55229 28.0005 9C28.0005 8.44772 28.4482 8 29.0005 8H34.0005Z" fill="url(#paint0_linear_238_25443)"/>
<defs>
<linearGradient id="paint0_linear_238_25443" x1="0.000488281" y1="14.5023" x2="42.0071" y2="14.5023" gradientUnits="userSpaceOnUse">
<stop stop-color="#F26F21"/>
<stop offset="0.64" stop-color="#EF522D"/>
<stop offset="1" stop-color="#EE4036"/>
</linearGradient>
</defs>
</svg>
