<svg width="30" height="30" fill="none" xmlns="http://www.w3.org/2000/svg"><path d="M11 5c1.41 0 2.758.268 3.997.752.1-.04.202-.078.304-.114a1 1 0 0 1 1.335.916A10.992 10.992 0 0 1 22 16c0 4.015-2.152 7.525-5.364 9.445a.995.995 0 0 1-1.335.917 10.963 10.963 0 0 1-.304-.115c-1.24.484-2.586.753-3.997.753-6.075 0-11-4.925-11-11S4.925 5 11 5Zm8.786 19.966a1 1 0 0 1 .172 1.993 11.127 11.127 0 0 1-1.71.016 1 1 0 0 1 .134-1.995 9.165 9.165 0 0 0 1.404-.014Zm4.376-1.592a1 1 0 1 1 1.149 1.637 10.99 10.99 0 0 1-1.66.96 1 1 0 0 1-.847-1.812 8.995 8.995 0 0 0 1.358-.785ZM11 7a9 9 0 1 0 0 18 9 9 0 0 0 0-18Zm16.16 12.804a1 1 0 0 1 1.812.846 10.99 10.99 0 0 1-.961 1.66 1 1 0 1 1-1.637-1.148c.3-.427.563-.882.785-1.358ZM10.047 10.02l-.037 1.855c.342 0 .684-.002 1.02.004l.035-1.842 1.275.019-.037 1.892c1.64.157 2.938.635 3.055 2.001.09 1-.383 1.591-1.128 1.917 1.212.282 1.96.95 1.783 2.411-.222 1.817-1.732 2.281-3.877 2.359l-.036 1.909-1.275-.02.037-1.883c-.33-.007-.67-.015-1.02-.026l-.036 1.893-1.274-.019.037-1.913c-.298-.006-.603-.015-.91-.021L6 20.529l.28-1.37s.94.027.927.015c.363.004.462-.228.487-.374l.058-3.02.134.002a.874.874 0 0 0-.134-.01l.042-2.156c-.044-.234-.208-.508-.724-.516.01-.017-.91-.015-.926-.015l.022-1.23 1.76.027v.007c.263.006.536.004.811.004L8.773 10l1.275.02Zm-.15 9.206c.864.012 3.573.218 3.598-1.212.03-1.494-2.683-1.312-3.548-1.325l-.05 2.537Zm18.978-5.095a1 1 0 0 1 1.083.91 11.127 11.127 0 0 1 0 1.916 1 1 0 0 1-1.993-.172 9.114 9.114 0 0 0 0-1.572 1 1 0 0 1 .91-1.082Zm-18.86-.902-.044 2.3c.72.01 2.976.197 3.002-1.104.025-1.357-2.239-1.186-2.958-1.197Zm16.602-3.785a1 1 0 0 1 1.393.244c.366.522.688 1.077.96 1.66a1 1 0 0 1-1.812.847 8.995 8.995 0 0 0-.785-1.358 1 1 0 0 1 .244-1.393Zm-4.297-2.933a1 1 0 0 1 1.33-.484c.583.273 1.138.595 1.66.961a1 1 0 1 1-1.149 1.637 8.992 8.992 0 0 0-1.358-.785 1 1 0 0 1-.483-1.33ZM19 5c.323 0 .642.014.958.041a1 1 0 0 1-.172 1.993 9.126 9.126 0 0 0-1.404-.013 1 1 0 1 1-.135-1.996c.249-.016.5-.025.753-.025Z" fill="url(#a)"/><defs><linearGradient id="a" x1="0" y1="16.002" x2="30.005" y2="16.002" gradientUnits="userSpaceOnUse"><stop stop-color="#F26F21"/><stop offset=".64" stop-color="#EF522D"/><stop offset="1" stop-color="#EE4036"/></linearGradient></defs></svg>