<svg width="48" height="48" fill="none" xmlns="http://www.w3.org/2000/svg"><path d="M13 26a9 9 0 1 1 0 18 9 9 0 0 1 0-18Zm22 0a9 9 0 1 1 0 18 9 9 0 0 1 0-18Zm-22 2a7 7 0 1 0 0 14 7 7 0 0 0 0-14Zm22 0a7 7 0 1 0 0 14 7 7 0 0 0 0-14Zm-22.05 6.746h.1L15.49 30H17l-2.8 5.02h1.925v.878H13.71l-.032.059v.996h2.447v.879h-2.447V40h-1.356v-2.168H9.874v-.879h2.448v-.996l-.032-.059H9.874v-.879H11.8L9 30h1.508l2.441 4.746ZM35.351 30.9c.441.028.835.124 1.182.288.42.196.75.468.989.817.238.346.363.745.37 1.195H36.53a1.072 1.072 0 0 0-.45-.797 1.535 1.535 0 0 0-.728-.268v2.225l.35.09c.295.07.58.166.852.285.274.12.52.271.736.453.219.183.392.403.52.66.127.258.19.56.19.907 0 .468-.117.882-.352 1.238-.234.354-.572.632-1.014.832-.364.164-.792.258-1.282.286V40h-.626v-.89a3.757 3.757 0 0 1-1.276-.278 2.37 2.37 0 0 1-1.046-.844c-.249-.37-.384-.82-.404-1.351h1.394c.02.278.104.51.252.695.147.185.34.323.576.414.156.06.324.097.504.117v-2.35l-.436-.115c-.643-.169-1.152-.426-1.526-.77-.372-.345-.558-.805-.558-1.378 0-.471.125-.884.374-1.238a2.482 2.482 0 0 1 1.026-.825 3.332 3.332 0 0 1 1.12-.282V30h.626v.9Zm0 6.961c.175-.022.335-.06.48-.118.234-.096.417-.23.55-.398a.978.978 0 0 0 .202-.602.777.777 0 0 0-.18-.515 1.314 1.314 0 0 0-.492-.344 4.352 4.352 0 0 0-.56-.202v2.18Zm-.626-5.72c-.158.022-.3.059-.428.114a1.13 1.13 0 0 0-.486.371.917.917 0 0 0-.17.535c0 .167.036.311.11.434.076.122.18.226.31.312.13.083.273.154.43.211.078.028.156.054.234.077v-2.053ZM13 4a9 9 0 1 1 0 18 9 9 0 0 1 0-18Zm22 0a9 9 0 1 1 0 18 9 9 0 0 1 0-18ZM13 6a7 7 0 1 0 0 14 7 7 0 0 0 0-14Zm22 0a7 7 0 1 0 0 14 7 7 0 0 0 0-14Zm-.774 2.017-.03 1.478c.272 0 .545-.002.812.003l.03-1.469 1.015.016-.03 1.508c1.307.125 2.341.506 2.435 1.595.072.798-.306 1.269-.898 1.529.964.225 1.561.756 1.42 1.92-.177 1.45-1.38 1.819-3.09 1.88L35.862 18l-1.015-.016.029-1.502a74.483 74.483 0 0 1-.812-.02l-.03 1.51-1.014-.016.029-1.524-.726-.017L31 16.393l.223-1.092s.74.02.739.011c.289.004.368-.18.389-.297l.046-2.409.106.002a.7.7 0 0 0-.106-.008l.033-1.718c-.035-.187-.167-.405-.578-.411.013-.014-.73-.012-.738-.012l.019-.98 1.401.021v.005c.21.005.428.003.647.003L33.21 8l1.016.017ZM13.283 9c.646 0 1.204.105 1.676.313a3.1 3.1 0 0 1 1.156.858c.299.362.522.786.667 1.271.146.486.218 1.006.218 1.558a5.4 5.4 0 0 1-.219 1.558c-.145.484-.368.91-.667 1.271a3.094 3.094 0 0 1-1.155.857c-.472.21-1.031.314-1.676.314H9.79v-3.553H9v-1.142h.79V9h3.493Zm-2.017 3.305h2.3v1.142h-2.3v2.41h1.45c.575 0 1.045-.073 1.411-.22.366-.145.653-.346.861-.604.213-.268.359-.578.425-.907.077-.37.114-.748.111-1.126a5.357 5.357 0 0 0-.11-1.126 2.136 2.136 0 0 0-.426-.908c-.208-.258-.496-.46-.861-.605-.366-.146-.836-.218-1.41-.218h-1.451v2.162Zm22.84 3.049c.688.01 2.847.175 2.868-.965.024-1.19-2.138-1.046-2.827-1.056l-.041 2.02Zm.058-2.947c.573.009 2.372.158 2.393-.88.02-1.082-1.785-.945-2.358-.954l-.035 1.834Z" fill="url(#a)"/><defs><linearGradient id="a" x1="4" y1="24.003" x2="44.006" y2="24.003" gradientUnits="userSpaceOnUse"><stop stop-color="#F26F21"/><stop offset=".64" stop-color="#EF522D"/><stop offset="1" stop-color="#EE4036"/></linearGradient></defs></svg>