<svg width="20" height="20" fill="none" xmlns="http://www.w3.org/2000/svg"><path d="M10 20c5.523 0 10-4.477 10-10S15.523 0 10 0 0 4.477 0 10s4.477 10 10 10Z" fill="#F49B33"/><path d="M13.479 7.674c-.098-1.254-1.174-1.694-2.535-1.837l.03-1.738-1.056-.017-.031 1.691c-.278-.005-.562-.003-.846-.003l.031-1.703-1.057-.02-.03 1.738c-.228 0-.455.002-.673-.004v-.006l-1.46-.025-.019 1.13s.783-.002.77.013c.427.008.563.26.6.474l-.035 1.979a.65.65 0 0 1 .111.01l-.111-.003-.048 2.773c-.021.135-.104.347-.405.344.014.011-.769-.014-.769-.014l-.232 1.258 1.377.025.756.02-.031 1.755 1.057.018.03-1.738c.29.01.572.018.846.024l-.03 1.73 1.056.016.03-1.752c1.78-.071 3.032-.497 3.216-2.165.148-1.342-.474-1.954-1.478-2.213.617-.3 1.01-.842.936-1.76Zm-1.546 3.731c-.021 1.314-2.268 1.124-2.986 1.112l.043-2.327c.717.011 2.968-.156 2.943 1.215ZM11.5 8.111c-.021 1.195-1.895 1.022-2.491 1.012l.036-2.11c.596.009 2.476-.149 2.455 1.098Z" fill="#fff"/></svg>