<svg width="20" height="20" fill="none" xmlns="http://www.w3.org/2000/svg"><g clip-path="url(#a)"><path d="M10 20c5.523 0 10-4.477 10-10S15.523 0 10 0 0 4.477 0 10s4.477 10 10 10Z" fill="#C3A634"/><path fill-rule="evenodd" clip-rule="evenodd" d="M8.28 9.131h2.696v1.429H8.28v3.011h1.7c.674 0 1.224-.09 1.653-.273.429-.182.765-.434 1.01-.756.25-.335.42-.723.497-1.134.09-.464.134-.936.131-1.408a7.118 7.118 0 0 0-.131-1.408 2.748 2.748 0 0 0-.498-1.134c-.244-.322-.58-.574-1.009-.756-.429-.183-.98-.273-1.652-.273H8.28v2.703ZM6.551 10.56h-.926V9.132h.926V5h4.093c.757 0 1.411.131 1.964.392a3.66 3.66 0 0 1 1.355 1.072c.35.452.61.982.781 1.59C14.915 8.66 15 9.308 15 10a7.17 7.17 0 0 1-.256 1.947 4.589 4.589 0 0 1-.781 1.59c-.35.452-.802.81-1.355 1.071-.553.261-1.208.392-1.964.392H6.551v-4.44Z" fill="#fff"/></g><defs><clipPath id="a"><path fill="#fff" d="M0 0h20v20H0z"/></clipPath></defs></svg>