<svg width="20" height="20" fill="none" xmlns="http://www.w3.org/2000/svg"><path d="M10 20c5.523 0 10-4.477 10-10S15.523 0 10 0 0 4.477 0 10s4.477 10 10 10Z" fill="#627EEA"/><path d="M10.312 2.499v5.544l4.686 2.094-4.686-7.638Z" fill="#fff" fill-opacity=".6"/><path d="m10.312 2.499-4.686 7.638 4.686-2.094V2.499Z" fill="#fff"/><path d="M10.312 13.729v3.767L15 11.009l-4.688 2.72Z" fill="#fff" fill-opacity=".6"/><path d="M10.312 17.496v-3.767l-4.686-2.72 4.686 6.487Z" fill="#fff"/><path d="m10.312 12.857 4.686-2.72-4.686-2.094v4.814Z" fill="#fff" fill-opacity=".2"/><path d="m5.626 10.137 4.686 2.72V8.043l-4.686 2.094Z" fill="#fff" fill-opacity=".6"/></svg>