<svg width="20" height="20" fill="none" xmlns="http://www.w3.org/2000/svg"><g clip-path="url(#a)"><path d="M10 20c5.523 0 10-4.477 10-10S15.523 0 10 0 0 4.477 0 10s4.477 10 10 10Z" fill="#009393"/><path fill-rule="evenodd" clip-rule="evenodd" d="M14.255 6v1.595h-3.194v1.106c2.243.119 3.927.604 3.939 1.186V11.1c-.013.582-1.696 1.067-3.94 1.186V15H8.94v-2.714C6.695 12.167 5.011 11.682 5 11.1V9.887c.013-.582 1.696-1.067 3.94-1.186V7.595H5.744V6h8.51ZM10 11.452c2.394 0 4.396-.41 4.885-.959-.415-.464-1.917-.83-3.824-.93v1.157a20.21 20.21 0 0 1-2.122 0V9.562c-1.907.1-3.409.467-3.824.931.49.549 2.49.96 4.885.96Z" fill="#fff"/></g><defs><clipPath id="a"><path fill="#fff" d="M0 0h20v20H0z"/></clipPath></defs></svg>