<?xml version="1.0" encoding="utf-8"?>
<!-- Generator: Adobe Illustrator 26.5.0, SVG Export Plug-In . SVG Version: 6.00 Build 0)  -->
<svg version="1.1" id="Layer_1" xmlns="http://www.w3.org/2000/svg" xmlns:xlink="http://www.w3.org/1999/xlink" x="0px" y="0px"
	 viewBox="0 0 1143.7 242.3" style="enable-background:new 0 0 1143.7 242.3;" xml:space="preserve">
<style type="text/css">
	.st0{fill:url(#SVGID_1_);}
	.st1{fill:#373635;}
	.st2{fill:url(#SVGID_00000085221030434981023850000005586847057079503507_);}
	.st3{fill:#FFFFFF;}
</style>
<linearGradient id="SVGID_1_" gradientUnits="userSpaceOnUse" x1="572.2823" y1="0" x2="572.2823" y2="242.3226">
	<stop  offset="0" style="stop-color:#F8F8F9"/>
	<stop  offset="1" style="stop-color:#C2C1C0"/>
</linearGradient>
<path class="st0" d="M1110.6,242.3H34c-18.3,0-33.1-14.8-33.1-33.1V33.1C0.9,14.8,15.7,0,34,0h1076.7c18.3,0,33.1,14.8,33.1,33.1
	v176.1C1143.7,227.5,1128.9,242.3,1110.6,242.3z"/>
<g>
	<path class="st1" d="M543.4,161.9c0.5,0,1.2,0,2.1-0.1c0.8-0.1,2.4-0.5,4.6-1.3c2.2-0.8,4.2-2,5.9-3.4c1.7-1.4,3.3-3.7,4.7-6.9
		c1.5-3.2,2.2-7,2.3-11.4h23.3c0,0.6,0,1.5-0.1,2.7s-0.4,3.5-1,6.8c-0.6,3.3-1.5,6.5-2.5,9.5c-1,3-2.6,6.3-4.8,10
		c-2.2,3.7-4.7,6.9-7.6,9.6c-2.9,2.7-6.6,4.9-11.4,6.7c-4.7,1.8-9.9,2.7-15.6,2.7c-6.5,0-12.4-1.1-17.7-3.2
		c-5.3-2.1-9.6-4.7-12.8-7.9c-3.3-3.1-6.1-7.1-8.4-11.8c-2.4-4.7-4.1-9-5.2-12.8c-1.1-3.8-2-8.2-2.7-13.3c-0.7-5-1-8.7-1.1-10.9
		c-0.1-2.3-0.1-4.8-0.1-7.7c0-2.9,0-5.4,0.1-7.7c0.1-2.3,0.4-5.9,1.1-10.9c0.7-5,1.5-9.5,2.7-13.4c1.1-3.9,2.9-8.2,5.2-12.9
		c2.4-4.7,5.2-8.7,8.4-11.7c3.3-3.1,7.5-5.7,12.8-7.9c5.3-2.2,11.2-3.3,17.7-3.3c5.7,0,10.9,0.9,15.6,2.6c4.7,1.7,8.5,4,11.4,6.8
		c2.9,2.8,5.4,6,7.6,9.4c2.2,3.5,3.8,6.9,4.8,10.4c1,3.5,1.8,6.6,2.4,9.4c0.6,2.8,0.9,5.1,1,6.8l0.2,2.7h-23.3
		c-0.1-4.4-0.9-8.2-2.3-11.4c-1.4-3.2-3.1-5.5-5-6.9c-1.9-1.4-3.8-2.6-5.6-3.4c-1.8-0.8-3.4-1.3-4.8-1.4h-2c-4.8,0-9,1.3-12.4,3.8
		c-3.4,2.5-6,6-7.7,10.3c-1.7,4.4-2.9,8.9-3.7,13.5c-0.7,4.6-1.1,9.7-1.1,15.2s0.4,10.6,1.1,15.1c0.7,4.6,2,9.1,3.7,13.4
		c1.7,4.4,4.3,7.8,7.7,10.3C534.4,160.6,538.6,161.9,543.4,161.9z"/>
	<path class="st1" d="M661,185.4V132h-38.1v53.4h-23.2V52.9h23.2V107H661V52.9h23.3v132.5H661z"/>
	<path class="st1" d="M732.9,52.9h32.8l37.2,132.5h-24.6l-8.1-28.9h-41.8l-8.1,28.9h-24.6L732.9,52.9z M748.1,85.4l-12.8,45.9h27.8
		l-12.7-45.9H748.1z"/>
	<path class="st1" d="M837.5,104.7v80.7h-23.2V52.9h28l36.9,79.5h2.6V52.9h23.1v132.5h-27.1l-37.6-80.7H837.5z"/>
	<path class="st1" d="M993.8,185.4v-9.7c-4.7,7.5-13.1,11.3-25.3,11.2c-6.5,0-12.4-1.1-17.7-3.2c-5.3-2.1-9.6-4.7-12.8-7.9
		c-3.3-3.1-6.1-7.1-8.4-11.8c-2.4-4.7-4.1-9-5.2-12.8c-1.1-3.8-2-8.2-2.7-13.3c-0.7-5-1-8.7-1.1-10.9c-0.1-2.3-0.1-4.8-0.1-7.7
		c0-2.9,0-5.4,0.1-7.7c0.1-2.3,0.4-5.9,1.1-10.9c0.7-5,1.5-9.5,2.7-13.4c1.1-3.9,2.9-8.2,5.2-12.9c2.4-4.7,5.2-8.7,8.4-11.7
		c3.3-3.1,7.5-5.7,12.8-7.9c5.3-2.2,11.2-3.3,17.7-3.3c5.7,0,10.9,0.9,15.6,2.6c4.7,1.7,8.5,4,11.4,6.8c2.9,2.8,5.4,6,7.6,9.4
		c2.2,3.5,3.8,6.9,4.8,10.4c1,3.5,1.8,6.6,2.4,9.4c0.6,2.8,0.9,5.1,1,6.8l0.2,2.7h-23.3c-0.1-4.4-0.9-8.2-2.3-11.4
		c-1.4-3.2-3.1-5.5-5-6.9c-1.9-1.4-3.8-2.6-5.6-3.4c-1.8-0.8-3.4-1.3-4.8-1.4h-2c-4.8,0-9,1.3-12.4,3.8c-3.4,2.5-6,6-7.7,10.3
		c-1.7,4.4-2.9,8.9-3.7,13.5c-0.7,4.6-1.1,9.7-1.1,15.2s0.4,10.6,1.1,15.1c0.7,4.6,2,9.1,3.7,13.4c1.7,4.4,4.3,7.8,7.7,10.3
		c3.4,2.5,7.5,3.8,12.4,3.8c1,0,2-0.1,3.2-0.2c1.1-0.1,2.9-0.6,5.4-1.5c2.5-0.9,4.6-2.1,6.4-3.7c1.8-1.6,3.4-4.1,4.9-7.5
		c1.5-3.5,2.2-7.5,2.2-12.3H967v-25.1h46.8v73.7H993.8z"/>
	<path class="st1" d="M1053.6,160.4h51.1v25h-74.3V52.9h74.3v25.1h-51.1v28.7h44.7v25h-44.7V160.4z"/>
</g>
<linearGradient id="SVGID_00000134966485976551690850000006311945329198705589_" gradientUnits="userSpaceOnUse" x1="233.3387" y1="0" x2="233.3387" y2="242.3226">
	<stop  offset="0" style="stop-color:#4B4A4C"/>
	<stop  offset="1" style="stop-color:#161718"/>
</linearGradient>
<path style="fill:url(#SVGID_00000134966485976551690850000006311945329198705589_);" d="M466.7,242.3H33.1
	C14.8,242.3,0,227.5,0,209.2V33.1C0,14.8,14.8,0,33.1,0h433.6V242.3z"/>
<g>
	<g>
		<path class="st3" d="M54.7,185.4V52.9h43.6c2.6,0,5.3,0.2,8.1,0.6c2.8,0.4,6.1,1.3,10,2.9c3.8,1.6,7.2,3.6,10.1,6.1
			c2.9,2.5,5.4,6.1,7.5,10.9c2.1,4.7,3.1,10.3,3.1,16.7v3.6c0,7.9-2.7,14.4-8.1,19.5v2.9c4.6,2.6,8.3,6.3,11.1,11.1
			c2.8,4.8,4.2,10.3,4.2,16.5v3.6c0,6.2-1,11.8-3.1,16.7c-2.1,4.9-4.6,8.6-7.5,11.2c-2.9,2.6-6.3,4.7-10.1,6.3
			c-3.8,1.7-7.2,2.7-10,3.1c-2.8,0.4-5.4,0.6-7.9,0.6H54.7z M79.2,105.9h19c5.2-0.4,8.9-1.5,11.1-3.3c2.2-1.8,3.3-4.8,3.3-8.9v-3.8
			c0-4-1.1-7-3.3-8.8c-2.2-1.8-5.9-2.9-11.1-3.3h-19V105.9z M79.2,130.9v29.5h26.1c5.2-0.4,8.9-1.6,11.1-3.6c2.2-2,3.3-5.1,3.3-9.3
			v-3.8c0-4.2-1.1-7.3-3.4-9.3c-2.3-2-5.9-3.3-11-3.6H79.2z"/>
		<path class="st3" d="M182.4,160.4h53.8v25H158V52.9h78.3v25.1h-53.8v28.7h47.1v25h-47.1V160.4z"/>
		<path class="st3" d="M276.3,89.8c0,3.4,2.1,6.4,6.3,9c4.2,2.6,9.2,5.1,15.2,7.4c5.9,2.3,11.9,5.1,17.9,8.3
			c6,3.2,11.1,7.8,15.3,13.7c4.2,6,6.3,13,6.3,21.2c0,11.5-3.8,20.6-11.4,27.4c-7.6,6.8-18.3,10.1-32,10.1
			c-12.3,0-22.8-3.8-31.3-11.3c-8.6-7.6-13.3-18.7-14.2-33.5h24.5c0.1,0.5,0.3,1.2,0.4,2.2c0.2,0.9,0.7,2.6,1.7,4.8
			c1,2.3,2.1,4.3,3.5,6c1.4,1.7,3.4,3.3,6.1,4.8c2.7,1.4,5.8,2.2,9.2,2.2c3.4,0,6.5-0.4,9.1-1.3c2.6-0.9,4.5-1.9,5.7-3
			c1.2-1.1,2.1-2.4,2.9-3.9c0.7-1.4,1.1-2.5,1.3-3.1c0.1-0.6,0.2-1.1,0.2-1.5c0-3.7-2.1-7-6.3-9.9c-4.2-2.8-9.3-5.4-15.3-7.8
			c-6-2.3-11.9-5-17.8-7.9c-5.9-2.9-11-7.3-15.2-13c-4.2-5.7-6.3-12.6-6.3-20.6c0-7.3,1.4-13.5,4.1-18.8c2.7-5.3,5.8-9.1,9.1-11.5
			c3.3-2.4,7.3-4.3,11.9-5.6c4.6-1.4,7.9-2.2,9.9-2.3c2-0.2,3.9-0.3,5.7-0.3c0.9,0,2,0,3.1,0.1c1.2,0.1,3.2,0.4,6.2,0.9
			c3,0.6,5.8,1.3,8.3,2.2c2.5,0.9,5.4,2.5,8.5,4.6c3.1,2.1,5.8,4.6,8,7.5c2.2,2.9,4,6.7,5.5,11.3c1.5,4.7,2.3,9.9,2.3,15.7
			l-24.5,0.2c0-1.5-0.2-3.1-0.5-4.6c-0.3-1.6-1-3.4-2-5.6c-1-2.2-2.8-4-5.3-5.4c-2.5-1.4-5.7-2.1-9.5-2.1
			C281.7,76.4,276.3,80.9,276.3,89.8z"/>
		<path class="st3" d="M431.5,77.9h-30.7v107.5h-24.5V77.9h-30.7V52.9h85.9V77.9z"/>
	</g>
</g>
</svg>
