<?xml version="1.0" encoding="utf-8"?>
<!-- Generator: Adobe Illustrator 25.0.1, SVG Export Plug-In . SVG Version: 6.00 Build 0)  -->
<svg version="1.0" id="Layer_1" xmlns="http://www.w3.org/2000/svg" xmlns:xlink="http://www.w3.org/1999/xlink" x="0px" y="0px"
	 viewBox="0 0 968 646.9" style="enable-background:new 0 0 968 646.9;" xml:space="preserve">
<style type="text/css">
	.st0{fill:#F7A600;}
	.st1{fill:#14192C;}
	.st2{fill:none;}
</style>
<path class="st0" d="M640.4,389.9V201h38v188.9H640.4z"/>
<path class="st1" d="M197.8,446h-81.4V257.1h78.1c38,0,60.1,20.7,60.1,53.1c0,21-14.2,34.5-24,39c11.7,5.3,26.8,17.2,26.8,42.5
	C257.4,426.9,232.5,446,197.8,446z M191.6,290h-37.1v43.5h37.1c16.1,0,25.1-8.8,25.1-21.8S207.7,290,191.6,290z M194,366.6h-39.6
	v46.4H194c17.2,0,25.4-10.6,25.4-23.4S211.2,366.6,194,366.6z"/>
<path class="st1" d="M373.2,368.5V446h-37.7v-77.5L277,257.1h41.2l36.3,76.1l35.8-76.1h41.2L373.2,368.5z"/>
<path class="st1" d="M539.3,446h-81.4V257.1H536c38,0,60.1,20.7,60.1,53.1c0,21-14.2,34.5-24,39c11.7,5.3,26.8,17.2,26.8,42.5
	C598.8,426.9,574,446,539.3,446z M533,290h-37.1v43.5H533c16.1,0,25.1-8.8,25.1-21.8S549.1,290,533,290z M535.4,366.6h-39.6v46.4
	h39.6c17.2,0,25.4-10.6,25.4-23.4S552.7,366.6,535.4,366.6L535.4,366.6z"/>
<path class="st1" d="M800.7,290v156h-38V290H712v-32.9h139.5V290H800.7z"/>
<rect x="92" y="172.9" class="st2" width="784" height="301.1"/>
</svg>
