<?xml version="1.0" encoding="utf-8"?>
<!-- Generator: Adobe Illustrator 26.5.0, SVG Export Plug-In . SVG Version: 6.00 Build 0)  -->
<svg version="1.1" id="Layer_1" xmlns="http://www.w3.org/2000/svg" xmlns:xlink="http://www.w3.org/1999/xlink" x="0px" y="0px"
	 viewBox="0 0 125 24" style="enable-background:new 0 0 125 24;" xml:space="preserve">
<style type="text/css">
	.st0{fill:#181834;}
</style>
<path class="st0" d="M104.6,9.7L101,9.3V4.8h-3.1v1.7c0,3.5,1.4,4.7,3.1,5.3h-3.1v4.2c0,4.1,2,5.7,5.8,5.7c3.8,0,5.8-1.6,5.8-5.7
	v-0.5C109.6,10.5,107,9.9,104.6,9.7z M106.5,18.8H101v-7c0.6,0.2,1.3,0.3,1.9,0.4l3.6,0.5V18.8z M113.9,4.8c-1,0-1.6,0.7-1.6,1.6
	c0,1,0.7,1.6,1.6,1.6c1,0,1.6-0.7,1.6-1.6C115.6,5.4,114.9,4.8,113.9,4.8z M121.4,9.6V6.8h-3.1c0,4,2,5.7,5.8,5.7h1.3V9.6
	C125.4,9.6,121.4,9.6,121.4,9.6z M121.4,12.1h-3.1v3.8c0,4.1,2,5.7,5.8,5.7h1.3v-2.8h-4C121.4,18.8,121.4,12.1,121.4,12.1z
	 M112.4,21.6h3.1v-12h-3.1C112.4,9.6,112.4,21.6,112.4,21.6z M60.5,9.7l-3.6-0.4V4.8h-3.1v1.7c0,3.5,1.4,4.7,3.1,5.3h-3.1v9.9h3.1
	v-9.8c0.6,0.2,1.3,0.3,1.9,0.4l3.6,0.5v8.9h3.1v-6.2C65.5,10.5,62.9,9.9,60.5,9.7L60.5,9.7z M47.6,18.8h-3.7V9.6h-3.1v6.3
	c0,4.1,2,5.7,5.8,5.7h4.1v-12h-3.1V18.8z M37.1,9.6H34v6.3c0,4.1,2,5.7,5.8,5.7h1.3v-2.8h-4L37.1,9.6C37.1,9.6,37.1,9.6,37.1,9.6z
	 M89.6,9.6h-5.8v1.5c0,4.1,2,5.7,5.8,5.7h5.8v-1.5C95.5,11.2,93.5,9.6,89.6,9.6L89.6,9.6z M92.4,14.2h-5.5v-1.9h5.5L92.4,14.2
	C92.3,14.2,92.4,14.2,92.4,14.2z M70,4.8c-1,0-1.6,0.7-1.6,1.6c0,1,0.7,1.6,1.6,1.6s1.6-0.7,1.6-1.6C71.7,5.4,71,4.8,70,4.8L70,4.8z
	 M68.5,21.6h3.1v-12h-3.1V21.6z M77.5,12.1h-3.1v3.8c0,4,2,5.7,5.8,5.7h1.3v-2.8h-4C77.5,18.8,77.5,12.1,77.5,12.1z M77.5,6.8h-3.1
	c0,4.1,2,5.7,5.8,5.7h1.3V9.6h-4C77.5,9.6,77.5,6.8,77.5,6.8z M86.9,16.4h-3.1c0,3.6,2,5.2,5.8,5.2h5.2v-2.8h-8L86.9,16.4
	C86.8,16.4,86.9,16.4,86.9,16.4z M11.9,5.3h6.4c0-2.9,2.4-5.3,5.3-5.3H30l-5.2,5.3V24h-9.7c-5.3,0-9.6-4.2-9.6-9.5v-4H0.2
	c0-2.9,2.4-5.3,5.3-5.3h0C5.5,2.4,7.9,0,10.8,0h6.4L11.9,5.3z M18.1,11.1c-0.8,0.8-0.8,2,0,2.8c0,0,0,0,0,0c0.8,0.8,2.1,0.8,2.8,0
	L18.1,11.1z"/>
<path class="st0" d="M0.2,10.6c0-3,2.4-5.4,5.4-5.4l0,5.4H0.2z"/>
</svg>
