<?xml version="1.0" encoding="utf-8"?>
<!-- Generator: Adobe Illustrator 27.2.0, SVG Export Plug-In . SVG Version: 6.00 Build 0)  -->
<svg version="1.1" id="Layer_1" xmlns="http://www.w3.org/2000/svg" xmlns:xlink="http://www.w3.org/1999/xlink" x="0px" y="0px"
	 viewBox="0 0 512 512" style="enable-background:new 0 0 512 512;" xml:space="preserve">
<style type="text/css">
	.st0{fill-rule:evenodd;clip-rule:evenodd;fill:#009393;}
	.st1{fill:#009393;}
</style>
<g>
	<path class="st0" d="M29.36,200.33h77.65c1.85,0,3.56,0.99,4.49,2.6l22.62,39.37c1.17,2.04,0.82,4.62-0.85,6.27L71,310.17
		c-2.02,2-5.26,2-7.28,0L1.54,248.65c-1.71-1.69-2.03-4.35-0.77-6.4l24.18-39.45C25.89,201.27,27.56,200.33,29.36,200.33z
		 M96.98,217.91v11.05H74.86v7.66c15.53,0.82,27.19,4.18,27.28,8.21l0,8.4c-0.09,4.03-11.74,7.39-27.28,8.21v18.79H60.17v-18.79
		c-15.53-0.82-27.19-4.18-27.28-8.21l0-8.4c0.09-4.03,11.74-7.39,27.28-8.21v-7.66H38.06v-11.05H96.98z M67.52,255.66
		c16.58,0,30.43-2.84,33.83-6.64c-2.88-3.22-13.28-5.75-26.48-6.45v8.02c-2.37,0.12-4.82,0.19-7.34,0.19
		c-2.52,0-4.98-0.07-7.34-0.19v-8.02c-13.21,0.7-23.61,3.23-26.48,6.45C37.08,252.81,50.94,255.66,67.52,255.66z"/>
	<path class="st1" d="M164.43,221.69l17.95-2.02v17.43h15.58v15.16h-15.71v23.5c0,5.56,2.33,8.34,6.98,8.34
		c2.99,0,5.48-0.51,7.48-1.52l4.11,15.16c-4.07,1.6-8.39,2.53-12.96,2.78c-7.23,0.34-12.96-1.39-17.2-5.18
		c-4.15-3.87-6.23-10.4-6.23-19.58v-23.5h-10.97V237.1h10.97V221.69z"/>
	<path class="st1" d="M265.14,273.87h-45.25c0.5,3.2,2.2,5.85,5.11,7.96c2.91,2.02,6.77,3.03,11.59,3.03
		c6.9,0,12.22-1.64,15.95-4.93l10.1,11.37c-6.15,6.15-14.96,9.22-26.43,9.22c-10.97,0-19.49-2.99-25.55-8.97
		c-5.98-5.98-8.97-14.07-8.97-24.26c0-9.6,2.95-17.35,8.85-23.25c5.9-5.98,13.84-8.97,23.81-8.97c10.89,0,19.2,3.37,24.93,10.11
		C265.09,251.93,267.05,261.49,265.14,273.87z M219.89,260.6h29.17c-0.17-3.2-1.66-5.64-4.49-7.33c-2.83-1.77-6.23-2.65-10.22-2.65
		c-3.57,0-6.65,0.88-9.22,2.65C222.55,255.04,220.8,257.49,219.89,260.6z"/>
	<path class="st1" d="M280.1,221.69l17.95-2.02v17.43h15.58v15.16h-15.7v23.5c0,5.56,2.33,8.34,6.98,8.34
		c2.99,0,5.49-0.51,7.48-1.52l4.11,15.16c-4.07,1.6-8.39,2.53-12.96,2.78c-7.23,0.34-12.96-1.39-17.2-5.18
		c-4.15-3.87-6.23-10.4-6.23-19.58v-23.5h-10.97V237.1h10.97V221.69z"/>
	<path class="st1" d="M323.23,210.7h18.07v33.73c4.41-5.81,10.64-8.72,18.7-8.72c16.37,0,24.55,9.98,24.55,29.94v33.48h-17.95
		v-33.35c0-4.3-1.08-7.62-3.24-9.98c-2.08-2.36-4.9-3.54-8.48-3.54c-3.9,0-7.19,1.35-9.85,4.04c-2.58,2.7-3.87,6.44-3.87,11.24
		v31.58h-17.95V210.7z"/>
	<path class="st1" d="M454.95,273.87H409.7c0.5,3.2,2.2,5.85,5.11,7.96c2.91,2.02,6.77,3.03,11.59,3.03c6.9,0,12.21-1.64,15.95-4.93
		l10.1,11.37c-6.15,6.15-14.96,9.22-26.43,9.22c-10.97,0-19.49-2.99-25.55-8.97c-5.98-5.98-8.97-14.07-8.97-24.26
		c0-9.6,2.95-17.35,8.85-23.25c5.9-5.98,13.83-8.97,23.81-8.97c10.89,0,19.2,3.37,24.93,10.11
		C454.91,251.93,456.86,261.49,454.95,273.87z M409.7,260.6h29.17c-0.16-3.2-1.66-5.64-4.49-7.33c-2.82-1.77-6.23-2.65-10.22-2.65
		c-3.57,0-6.65,0.88-9.22,2.65C412.36,255.04,410.61,257.49,409.7,260.6z"/>
	<path class="st1" d="M462.39,236.85h16.7l1.37,6.82c3.9-5.56,9.39-8.34,16.45-8.34c5.82,0,10.84,1.9,15.08,5.69l-7.48,14.4
		c-2.91-2.11-6.19-3.16-9.85-3.16c-4.07,0-7.48,1.31-10.22,3.92c-2.74,2.53-4.11,6.02-4.11,10.49v32.47h-17.95V236.85z"/>
</g>
</svg>
