<svg width="76" height="28" fill="none" xmlns="http://www.w3.org/2000/svg"><path d="M12 26c6.627 0 12-5.373 12-12S18.627 2 12 2 0 7.373 0 14s5.373 12 12 12Z" fill="#F49B33"/><path d="M16.174 11.209c-.117-1.505-1.408-2.032-3.042-2.205l.037-2.084-1.268-.021-.037 2.03c-.333-.008-.674-.005-1.014-.005l.037-2.044-1.268-.023-.037 2.085c-.274 0-.545.002-.808-.004V8.93l-1.75-.03L7 10.256s.939-.002.923.016c.513.01.676.31.72.569l-.041 2.374a.78.78 0 0 1 .133.012l-.133-.003-.058 3.328c-.025.16-.124.416-.485.412.016.014-.923-.016-.923-.016l-.279 1.509 1.653.03.906.023-.037 2.108 1.268.02.037-2.084c.348.011.686.02 1.015.027l-.037 2.076 1.268.02.037-2.103c2.135-.085 3.638-.596 3.859-2.598.177-1.61-.569-2.344-1.774-2.655.74-.359 1.212-1.01 1.122-2.112Zm-1.854 4.478c-.026 1.576-2.722 1.348-3.583 1.334l.05-2.793c.861.014 3.563-.187 3.533 1.459Zm-.52-3.954c-.026 1.434-2.274 1.227-2.99 1.215l.044-2.533c.716.011 2.971-.177 2.946 1.318Z" fill="#fff"/><path d="M37.761 21V6.455h5.086c1.013 0 1.849.175 2.507.525.658.346 1.148.812 1.47 1.4a3.94 3.94 0 0 1 .483 1.938c0 .625-.111 1.141-.334 1.549-.218.407-.507.729-.867.965a3.946 3.946 0 0 1-1.157.526v.142c.445.028.892.185 1.342.469.45.284.826.691 1.13 1.221.303.53.454 1.18.454 1.946 0 .73-.166 1.385-.497 1.968-.332.582-.855 1.044-1.57 1.385-.715.34-1.645.511-2.791.511h-5.256Zm1.762-1.563h3.494c1.15 0 1.967-.222 2.45-.667.488-.45.732-.994.732-1.634 0-.492-.126-.947-.377-1.363a2.724 2.724 0 0 0-1.072-1.009c-.464-.255-1.013-.383-1.648-.383h-3.58v5.056Zm0-6.59h3.267c.53 0 1.008-.105 1.434-.313.431-.208.772-.502 1.023-.88.256-.38.384-.825.384-1.336 0-.639-.223-1.181-.668-1.626-.445-.45-1.15-.675-2.116-.675h-3.324v4.83Zm10.45-4.83V6.455h10.91v1.562h-4.574V21h-1.761V8.017h-4.574ZM74.7 11H72.94a3.66 3.66 0 0 0-1.484-2.301 3.979 3.979 0 0 0-1.215-.597 4.85 4.85 0 0 0-1.392-.199c-.88 0-1.678.223-2.394.668-.71.445-1.275 1.1-1.697 1.967-.417.867-.625 1.93-.625 3.19 0 1.259.208 2.322.625 3.188.421.867.987 1.522 1.697 1.968a4.437 4.437 0 0 0 2.394.667c.483 0 .947-.066 1.392-.199.445-.132.85-.329 1.215-.59a3.729 3.729 0 0 0 1.484-2.308H74.7a5.87 5.87 0 0 1-.724 1.996 5.456 5.456 0 0 1-1.307 1.499 5.724 5.724 0 0 1-1.754.93 6.541 6.541 0 0 1-2.067.32c-1.24 0-2.344-.303-3.31-.91-.966-.605-1.725-1.467-2.28-2.585-.553-1.117-.83-2.443-.83-3.977 0-1.534.277-2.86.83-3.977.554-1.117 1.314-1.98 2.28-2.585.966-.606 2.07-.91 3.31-.91a6.54 6.54 0 0 1 2.067.32 5.64 5.64 0 0 1 1.754.938c.52.407.957.904 1.307 1.491.35.583.592 1.248.724 1.996Z" fill="#000"/></svg>