<svg width="104" height="28" fill="none" xmlns="http://www.w3.org/2000/svg"><g clip-path="url(#a)"><path d="M14 28c7.732 0 14-6.268 14-14S21.732 0 14 0 0 6.268 0 14s6.268 14 14 14Z" fill="#C3A634"/><path fill-rule="evenodd" clip-rule="evenodd" d="M11.592 12.784h3.775v2h-3.775V19h2.38c.943 0 1.714-.127 2.314-.383.6-.254 1.071-.607 1.413-1.058a3.85 3.85 0 0 0 .697-1.589A9.97 9.97 0 0 0 18.58 14a9.97 9.97 0 0 0-.184-1.97 3.847 3.847 0 0 0-.697-1.589c-.342-.451-.813-.804-1.413-1.058-.6-.256-1.37-.383-2.313-.383h-2.381v3.785-.001Zm-2.42 2H7.875v-2h1.297V7h5.73c1.059 0 1.975.184 2.75.549a5.125 5.125 0 0 1 1.896 1.5c.49.634.855 1.376 1.094 2.225.239.85.358 1.76.358 2.726.006.92-.115 1.838-.359 2.726a6.422 6.422 0 0 1-1.093 2.225 5.116 5.116 0 0 1-1.897 1.5c-.774.366-1.691.549-2.749.549h-5.73v-6.216Z" fill="#fff"/></g><path d="M46.264 22.5H40.99V6.21h5.44c1.597 0 2.968.325 4.113.978 1.146.646 2.023 1.577 2.633 2.792.615 1.209.923 2.659.923 4.35 0 1.698-.31 3.156-.93 4.376a6.532 6.532 0 0 1-2.673 2.816c-1.167.652-2.578.978-4.232.978Zm-2.816-2.148h2.68c1.242 0 2.273-.233 3.095-.7.822-.472 1.437-1.153 1.845-2.044.409-.896.613-1.989.613-3.277 0-1.278-.204-2.363-.613-3.254-.403-.89-1.005-1.567-1.805-2.028-.801-.461-1.795-.692-2.983-.692h-2.832v11.995Zm27.859-5.998c0 1.74-.319 3.235-.955 4.487-.636 1.246-1.508 2.206-2.617 2.88-1.103.668-2.357 1.002-3.762 1.002-1.411 0-2.67-.334-3.779-1.002-1.103-.674-1.973-1.637-2.609-2.888-.636-1.252-.954-2.744-.954-4.478 0-1.74.318-3.233.954-4.479.636-1.251 1.506-2.211 2.61-2.88 1.108-.673 2.367-1.01 3.778-1.01 1.405 0 2.66.337 3.762 1.01 1.109.669 1.98 1.629 2.617 2.88.636 1.246.955 2.74.955 4.479Zm-2.434 0c0-1.325-.215-2.441-.645-3.348-.424-.912-1.007-1.602-1.75-2.069-.737-.471-1.572-.707-2.505-.707-.939 0-1.777.236-2.514.707-.737.467-1.32 1.157-1.75 2.069-.424.906-.636 2.023-.636 3.348 0 1.326.212 2.445.636 3.357.43.907 1.013 1.597 1.75 2.069.737.466 1.575.7 2.514.7.933 0 1.768-.234 2.505-.7.743-.472 1.326-1.162 1.75-2.069.43-.912.645-2.03.645-3.356Zm16.523-2.998a4.974 4.974 0 0 0-.62-1.297 3.967 3.967 0 0 0-.915-.986 3.842 3.842 0 0 0-1.217-.629 4.893 4.893 0 0 0-1.488-.214c-.917 0-1.744.236-2.481.707-.737.472-1.32 1.165-1.75 2.077-.425.907-.637 2.017-.637 3.333 0 1.32.215 2.436.645 3.348.43.913 1.018 1.605 1.765 2.077.748.472 1.6.708 2.554.708.886 0 1.657-.18 2.315-.541a3.77 3.77 0 0 0 1.535-1.528c.366-.663.549-1.442.549-2.338l.636.119h-4.661v-2.028h6.403v1.853c0 1.368-.291 2.556-.875 3.564a5.958 5.958 0 0 1-2.402 2.322c-1.018.547-2.185.82-3.5.82-1.474 0-2.768-.34-3.882-1.018-1.108-.68-1.973-1.642-2.593-2.888-.62-1.252-.93-2.736-.93-4.454 0-1.3.18-2.466.54-3.5.36-1.035.867-1.912 1.52-2.633a6.633 6.633 0 0 1 2.314-1.663c.891-.387 1.864-.58 2.92-.58.88 0 1.7.13 2.457.39a6.63 6.63 0 0 1 2.037 1.105 6.262 6.262 0 0 1 2.283 3.874h-2.522ZM91.15 22.5V6.21h10.214v2.115h-7.756v4.964h7.223v2.108h-7.223v4.987h7.851V22.5H91.149Z" fill="#000"/><defs><clipPath id="a"><path fill="#fff" d="M0 0h28v28H0z"/></clipPath></defs></svg>