<svg width="76" height="28" fill="none" xmlns="http://www.w3.org/2000/svg"><path d="M12 26c6.627 0 12-5.373 12-12S18.627 2 12 2 0 7.373 0 14s5.373 12 12 12Z" fill="#627EEA"/><path d="M12.374 4.999v6.652l5.623 2.513L12.374 5Z" fill="#fff" fill-opacity=".6"/><path d="m12.374 4.999-5.623 9.165 5.623-2.513V5Z" fill="#fff"/><path d="M12.374 18.474v4.52L18 15.21l-5.626 3.264Z" fill="#fff" fill-opacity=".6"/><path d="M12.374 22.994v-4.52L6.751 15.21l5.623 7.784Z" fill="#fff"/><path d="m12.374 17.428 5.623-3.264-5.623-2.513v5.777Z" fill="#fff" fill-opacity=".2"/><path d="m6.751 14.164 5.623 3.264v-5.777l-5.623 2.513Z" fill="#fff" fill-opacity=".6"/><path d="M37.761 21V6.455h8.779v1.562h-7.017v4.915h6.562v1.562h-6.562v4.944h7.13V21h-8.892ZM48.92 8.017V6.455h10.91v1.562h-4.575V21h-1.761V8.017h-4.574ZM62.547 21V6.455h1.76v6.477h7.757V6.455h1.76V21h-1.76v-6.506h-7.756V21h-1.762Z" fill="#000"/></svg>