<svg width="130" height="32" fill="none" xmlns="http://www.w3.org/2000/svg"><g clip-path="url(#a)"><path d="M38.131 22.596h9.249v-2.81h-5.962V9.204h-3.287v13.393ZM52.86 20.724c-1.319 0-2.006-1.162-2.006-2.904s.687-2.922 2.005-2.922c1.32 0 2.025 1.18 2.025 2.922 0 1.742-.706 2.904-2.025 2.904Zm.018 2.173c3.064 0 5.07-2.192 5.07-5.077 0-2.884-2.006-5.076-5.07-5.076-3.046 0-5.088 2.192-5.088 5.076 0 2.885 2.042 5.077 5.088 5.077ZM63.252 25.912c1.411 0 2.656-.319 3.491-1.068.762-.693 1.263-1.742 1.263-3.184v-8.654H65.11v1.03h-.037c-.557-.806-1.412-1.311-2.674-1.311-2.359 0-3.993 1.985-3.993 4.795 0 2.94 1.987 4.552 4.123 4.552 1.151 0 1.875-.469 2.432-1.105h.075v.955c0 1.161-.539 1.836-1.82 1.836-1.003 0-1.505-.431-1.672-.937H58.61c.297 2.004 2.024 3.09 4.643 3.09Zm-.019-6.107c-1.133 0-1.875-.936-1.875-2.379 0-1.46.742-2.397 1.875-2.397 1.263 0 1.932 1.086 1.932 2.378 0 1.35-.613 2.398-1.932 2.398ZM73.964 20.724c-1.319 0-2.006-1.162-2.006-2.904s.687-2.922 2.006-2.922c1.318 0 2.024 1.18 2.024 2.922 0 1.742-.706 2.904-2.024 2.904Zm.018 2.173c3.064 0 5.07-2.192 5.07-5.077 0-2.884-2.006-5.076-5.07-5.076-3.046 0-5.088 2.192-5.088 5.076 0 2.885 2.042 5.077 5.088 5.077ZM79.936 22.596h3.027v-9.59h-3.027v9.59Zm0-10.92h3.027V9.203h-3.027v2.473ZM84.276 25.762h3.028v-4.159h.037c.594.806 1.467 1.293 2.693 1.293 2.488 0 4.14-1.986 4.14-5.095 0-2.885-1.54-5.076-4.066-5.076-1.3 0-2.229.58-2.879 1.442h-.055v-1.161h-2.898v12.756Zm4.978-5.226c-1.3 0-2.043-1.068-2.043-2.623 0-1.554.668-2.735 1.987-2.735 1.3 0 1.913 1.087 1.913 2.735 0 1.63-.706 2.623-1.858 2.623ZM99.103 22.896c2.489 0 4.327-1.087 4.327-3.184 0-2.454-1.968-2.885-3.64-3.166-1.207-.225-2.284-.319-2.284-.993 0-.6.576-.88 1.319-.88.835 0 1.411.262 1.523 1.124h2.785c-.148-1.892-1.597-3.072-4.29-3.072-2.247 0-4.104 1.049-4.104 3.072 0 2.247 1.764 2.697 3.417 2.978 1.263.225 2.414.318 2.414 1.18 0 .618-.575.955-1.485.955-1.003 0-1.635-.468-1.746-1.423h-2.86c.093 2.116 1.839 3.409 4.624 3.409ZM107.543 22.88c1.318 0 2.154-.525 2.841-1.462h.056v1.18h2.897v-9.59h-3.027v5.357c0 1.143-.632 1.93-1.672 1.93-.965 0-1.43-.581-1.43-1.63v-5.657H104.2v6.294c0 2.135 1.151 3.577 3.343 3.577ZM114.654 22.596h3.027V17.22c0-1.142.557-1.948 1.504-1.948.91 0 1.337.6 1.337 1.63v5.694h3.028V17.22c0-1.142.538-1.948 1.504-1.948.91 0 1.337.6 1.337 1.63v5.694h3.027V16.36c0-2.155-1.077-3.634-3.231-3.634-1.226 0-2.247.524-2.99 1.686h-.037c-.483-1.03-1.43-1.686-2.675-1.686-1.374 0-2.284.655-2.878 1.648h-.056v-1.367h-2.897v9.59Z" fill="#000"/><path d="M19.662 1.543 16.62.721l-2.565 9.654-2.315-8.716-3.044.823 2.502 9.416-6.231-6.284L2.738 7.86l6.835 6.894-8.512-2.3-.815 3.069 9.3 2.513a6.43 6.43 0 0 1-.163-1.441c0-3.51 2.821-6.356 6.302-6.356 3.48 0 6.301 2.845 6.301 6.356 0 .492-.056.972-.16 1.433l8.451 2.284.816-3.07-9.337-2.523 8.512-2.301-.816-3.07-9.336 2.524 6.231-6.285-2.228-2.247-6.74 6.798 2.283-8.596Z" fill="url(#b)"/><path d="M21.817 18.063a6.36 6.36 0 0 1-1.567 2.913l6.123 6.176 2.228-2.248-6.784-6.841Z" fill="url(#c)"/><path d="M20.187 21.043a6.287 6.287 0 0 1-2.815 1.68l2.228 8.386 3.043-.822-2.456-9.244Z" fill="url(#d)"/><path d="M17.258 22.752a6.256 6.256 0 0 1-3.254-.029l-2.23 8.394 3.043.823 2.44-9.189Z" fill="url(#e)"/><path d="M13.896 22.692a6.292 6.292 0 0 1-2.766-1.704L4.992 27.18l2.228 2.247 6.676-6.735Z" fill="url(#f)"/><path d="M11.078 20.934a6.359 6.359 0 0 1-1.528-2.877l-8.48 2.291.816 3.07 9.192-2.484Z" fill="url(#g)"/></g><defs><linearGradient id="b" x1=".246" y1="10.518" x2="31.098" y2="10.518" gradientUnits="userSpaceOnUse"><stop stop-color="#F26F21"/><stop offset=".64" stop-color="#EF522D"/><stop offset="1" stop-color="#EE4036"/></linearGradient><linearGradient id="c" x1="20.25" y1="22.608" x2="28.602" y2="22.608" gradientUnits="userSpaceOnUse"><stop stop-color="#F26F21"/><stop offset=".64" stop-color="#EF522D"/><stop offset="1" stop-color="#EE4036"/></linearGradient><linearGradient id="d" x1="17.372" y1="26.077" x2="22.644" y2="26.077" gradientUnits="userSpaceOnUse"><stop stop-color="#F26F21"/><stop offset=".64" stop-color="#EF522D"/><stop offset="1" stop-color="#EE4036"/></linearGradient><linearGradient id="e" x1="11.773" y1="27.332" x2="17.259" y2="27.332" gradientUnits="userSpaceOnUse"><stop stop-color="#F26F21"/><stop offset=".64" stop-color="#EF522D"/><stop offset="1" stop-color="#EE4036"/></linearGradient><linearGradient id="f" x1="4.992" y1="25.208" x2="13.898" y2="25.208" gradientUnits="userSpaceOnUse"><stop stop-color="#F26F21"/><stop offset=".64" stop-color="#EF522D"/><stop offset="1" stop-color="#EE4036"/></linearGradient><linearGradient id="g" x1="1.07" y1="20.738" x2="11.08" y2="20.738" gradientUnits="userSpaceOnUse"><stop stop-color="#F26F21"/><stop offset=".64" stop-color="#EF522D"/><stop offset="1" stop-color="#EE4036"/></linearGradient><clipPath id="a"><path fill="#fff" d="M0 0h130v32H0z"/></clipPath></defs></svg>