<svg width="131" height="32" fill="none" xmlns="http://www.w3.org/2000/svg"><g clip-path="url(#a)"><path d="M39.424 22.365h9.265v-2.743h-5.972V9.291h-3.293v13.074ZM54.177 20.536c-1.32 0-2.009-1.134-2.009-2.835 0-1.7.689-2.852 2.01-2.852 1.32 0 2.027 1.152 2.027 2.852 0 1.701-.707 2.835-2.028 2.835Zm.019 2.121c3.07 0 5.079-2.14 5.079-4.956 0-2.816-2.01-4.955-5.079-4.955-3.051 0-5.097 2.14-5.097 4.955 0 2.816 2.046 4.956 5.097 4.956ZM64.588 25.602c1.414 0 2.66-.311 3.497-1.043.763-.676 1.266-1.7 1.266-3.108v-8.448h-2.903v1.005h-.037c-.558-.786-1.414-1.28-2.679-1.28-2.362 0-4 1.939-4 4.682 0 2.87 1.991 4.443 4.13 4.443 1.154 0 1.88-.457 2.437-1.079h.075v.933c0 1.133-.54 1.792-1.823 1.792-1.005 0-1.507-.42-1.675-.915h-2.939c.298 1.957 2.028 3.018 4.65 3.018Zm-.019-5.962c-1.135 0-1.879-.914-1.879-2.322 0-1.426.745-2.34 1.88-2.34 1.264 0 1.934 1.06 1.934 2.322 0 1.316-.614 2.34-1.935 2.34ZM75.318 20.536c-1.32 0-2.01-1.134-2.01-2.835 0-1.7.69-2.852 2.01-2.852 1.32 0 2.028 1.152 2.028 2.852 0 1.701-.707 2.835-2.028 2.835Zm.019 2.121c3.07 0 5.078-2.14 5.078-4.956 0-2.816-2.009-4.955-5.078-4.955-3.051 0-5.098 2.14-5.098 4.955 0 2.816 2.047 4.956 5.098 4.956ZM81.3 22.365h3.033v-9.362h-3.032v9.362Zm0-10.66h3.033V9.29h-3.032v2.414ZM85.65 25.455h3.032v-4.06h.037c.595.787 1.47 1.263 2.698 1.263 2.492 0 4.148-1.939 4.148-4.974 0-2.816-1.544-4.956-4.074-4.956-1.302 0-2.233.567-2.884 1.409h-.055v-1.134h-2.903v12.452Zm4.985-5.101c-1.302 0-2.046-1.043-2.046-2.56 0-1.518.67-2.67 1.99-2.67 1.303 0 1.917 1.06 1.917 2.67 0 1.59-.707 2.56-1.86 2.56ZM100.502 22.658c2.493 0 4.335-1.06 4.335-3.109 0-2.395-1.972-2.816-3.647-3.09-1.209-.22-2.288-.311-2.288-.97 0-.585.577-.859 1.321-.859.837 0 1.414.256 1.525 1.097h2.791c-.149-1.847-1.6-2.998-4.298-2.998-2.25 0-4.11 1.024-4.11 2.998 0 2.195 1.766 2.633 3.422 2.908 1.265.22 2.419.31 2.419 1.152 0 .603-.577.932-1.489.932-1.004 0-1.637-.457-1.748-1.39H95.87c.093 2.067 1.841 3.329 4.632 3.329ZM108.956 22.639c1.32 0 2.158-.512 2.846-1.427h.056v1.152h2.902v-9.362h-3.033v5.23c0 1.115-.632 1.883-1.674 1.883-.967 0-1.432-.567-1.432-1.59v-5.523h-3.014v6.144c0 2.084 1.153 3.492 3.349 3.492ZM116.079 22.365h3.032v-5.248c0-1.115.558-1.902 1.507-1.902.911 0 1.339.585 1.339 1.591v5.56h3.033v-5.249c0-1.115.539-1.902 1.507-1.902.911 0 1.339.585 1.339 1.591v5.56h3.032v-6.09c0-2.103-1.079-3.547-3.237-3.547-1.227 0-2.251.512-2.995 1.645h-.037c-.484-1.006-1.432-1.646-2.679-1.646-1.377 0-2.288.64-2.883 1.61h-.056v-1.335h-2.902v9.362Z" fill="#000"/><path fill-rule="evenodd" clip-rule="evenodd" d="M16.033.732c8.73 0 15.807 6.956 15.807 15.537 0 8.58-7.077 15.536-15.807 15.536S.227 24.849.227 16.269C.227 7.689 7.304.732 16.033.732Zm15.2 15.537c0-8.251-6.805-14.94-15.2-14.94-.677 0-1.344.043-1.997.128.422-.037.85-.055 1.281-.055 8.022 0 14.524 6.391 14.524 14.276 0 7.884-6.502 14.275-14.524 14.275-7.594 0-13.826-5.728-14.469-13.029.35 7.947 7.014 14.285 15.185 14.285 8.395 0 15.2-6.69 15.2-14.94Zm-1.998-.591c0-7.555-6.231-13.68-13.918-13.68-.624 0-1.238.04-1.84.119.37-.031.746-.047 1.125-.047 7.313 0 13.241 5.828 13.241 13.016S21.915 28.1 14.602 28.1c-6.915 0-12.592-5.21-13.19-11.853.304 7.29 6.413 13.11 13.905 13.11 7.687 0 13.918-6.125 13.918-13.68ZM14.602 2.667c6.978 0 12.635 5.56 12.635 12.419 0 6.859-5.657 12.419-12.635 12.419-6.817 0-12.373-5.306-12.626-11.945.547 5.993 5.67 10.689 11.91 10.689 6.604 0 11.958-5.263 11.958-11.754 0-6.492-5.354-11.755-11.958-11.755-.342 0-.68.014-1.015.042a12.965 12.965 0 0 1 1.73-.115Zm10.636 11.828c0-6.163-5.083-11.158-11.352-11.158-.53 0-1.051.035-1.562.104.28-.021.56-.032.845-.032 5.896 0 10.677 4.698 10.677 10.494 0 5.795-4.78 10.494-10.677 10.494-5.55 0-10.11-4.162-10.627-9.484.223 5.968 5.217 10.74 11.344 10.74 6.27 0 11.352-4.996 11.352-11.158ZM13.169 4.005c5.561 0 10.07 4.432 10.07 9.898 0 5.466-4.509 9.897-10.07 9.897-5.452 0-9.891-4.258-10.064-9.575.466 4.67 4.474 8.32 9.348 8.32 5.189 0 9.394-4.134 9.394-9.234s-4.206-9.233-9.394-9.233c-.238 0-.473.008-.707.025.465-.064.94-.098 1.423-.098Zm8.072 9.306c0-4.77-3.935-8.637-8.788-8.637a9.01 9.01 0 0 0-1.303.094c.194-.013.39-.02.588-.02 4.479 0 8.11 3.569 8.11 7.972 0 4.403-3.631 7.972-8.11 7.972-4.198 0-7.65-3.134-8.069-7.151.124 4.664 4.01 8.407 8.784 8.407 4.853 0 8.788-3.867 8.788-8.637Zm-9.503-7.967c4.144 0 7.504 3.302 7.504 7.376s-3.36 7.376-7.505 7.376c-4.091 0-7.418-3.219-7.502-7.22.378 3.354 3.272 5.964 6.787 5.964 3.771 0 6.828-3.005 6.828-6.712s-3.057-6.712-6.828-6.712c-.145 0-.288.005-.43.013a7.69 7.69 0 0 1 1.146-.085Zm5.506 6.784c0-3.377-2.786-6.115-6.222-6.115-.345 0-.684.027-1.014.08.099-.005.197-.007.297-.007 3.063 0 5.546 2.44 5.546 5.451 0 3.01-2.483 5.452-5.546 5.452-2.832 0-5.169-2.087-5.505-4.782.043 3.341 2.812 6.037 6.222 6.037 3.436 0 6.222-2.738 6.222-6.116Zm-6.939-5.446c2.728 0 4.94 2.174 4.94 4.855 0 2.682-2.212 4.855-4.94 4.855s-4.94-2.173-4.94-4.855v-.02c.284 2.044 2.067 3.619 4.224 3.619 2.355 0 4.263-1.876 4.263-4.19 0-2.315-1.908-4.191-4.263-4.191-.053 0-.106 0-.159.003.284-.05.576-.076.875-.076Zm2.94 4.263c0-1.985-1.636-3.594-3.656-3.594-2.02 0-3.656 1.61-3.656 3.594 0 1.985 1.637 3.594 3.656 3.594 2.02 0 3.657-1.609 3.657-3.594Z" fill="url(#b)"/></g><defs><linearGradient id="b" x1=".227" y1="16.271" x2="31.845" y2="16.271" gradientUnits="userSpaceOnUse"><stop stop-color="#F26F21"/><stop offset=".64" stop-color="#EF522D"/><stop offset="1" stop-color="#EE4036"/></linearGradient><clipPath id="a"><path fill="#fff" d="M0 0h131v32H0z"/></clipPath></defs></svg>