<svg width="131" height="32" fill="none" xmlns="http://www.w3.org/2000/svg"><g clip-path="url(#a)"><path d="M39.963 21.961h9.21v-2.81h-5.937V8.568h-3.273v13.393ZM54.63 20.09c-1.314 0-1.998-1.162-1.998-2.904s.684-2.922 1.998-2.922c1.313 0 2.015 1.18 2.015 2.922 0 1.742-.703 2.903-2.016 2.903Zm.018 2.172c3.051 0 5.049-2.192 5.049-5.076 0-2.885-1.998-5.077-5.049-5.077-3.033 0-5.067 2.192-5.067 5.077 0 2.884 2.034 5.076 5.067 5.076ZM64.979 25.277c1.405 0 2.645-.319 3.477-1.068.758-.693 1.257-1.742 1.257-3.184V12.37h-2.885v1.03h-.037c-.555-.805-1.405-1.311-2.663-1.311-2.349 0-3.976 1.985-3.976 4.795 0 2.941 1.979 4.552 4.106 4.552 1.146 0 1.868-.468 2.422-1.105h.074v.955c0 1.162-.536 1.836-1.812 1.836-.999 0-1.498-.431-1.665-.937h-2.922c.296 2.005 2.016 3.091 4.624 3.091Zm-.019-6.107c-1.128 0-1.868-.936-1.868-2.379 0-1.46.74-2.397 1.868-2.397 1.258 0 1.924 1.086 1.924 2.379 0 1.349-.61 2.397-1.924 2.397ZM75.646 20.09c-1.314 0-1.998-1.162-1.998-2.904s.684-2.922 1.998-2.922c1.313 0 2.015 1.18 2.015 2.922 0 1.742-.702 2.903-2.015 2.903Zm.018 2.172c3.052 0 5.049-2.192 5.049-5.076 0-2.885-1.997-5.077-5.049-5.077-3.033 0-5.067 2.192-5.067 5.077 0 2.884 2.034 5.076 5.067 5.076ZM81.593 21.961h3.014v-9.59h-3.014v9.59Zm0-10.92h3.014V8.568h-3.014v2.473ZM85.916 25.127h3.015V20.97h.037c.591.805 1.46 1.292 2.681 1.292 2.478 0 4.124-1.985 4.124-5.095 0-2.885-1.535-5.076-4.05-5.076-1.294 0-2.22.58-2.866 1.442H88.8v-1.161h-2.885v12.756Zm4.956-5.226c-1.294 0-2.034-1.068-2.034-2.622 0-1.555.666-2.735 1.979-2.735 1.295 0 1.905 1.086 1.905 2.735 0 1.63-.703 2.622-1.85 2.622ZM100.681 22.261c2.478 0 4.309-1.086 4.309-3.184 0-2.454-1.96-2.885-3.625-3.166-1.202-.225-2.274-.318-2.274-.993 0-.6.573-.88 1.313-.88.832 0 1.405.262 1.516 1.124h2.774c-.148-1.892-1.59-3.072-4.272-3.072-2.237 0-4.087 1.049-4.087 3.072 0 2.248 1.757 2.697 3.403 2.978 1.258.225 2.404.319 2.404 1.18 0 .618-.573.956-1.479.956-.999 0-1.628-.469-1.739-1.424h-2.848c.093 2.117 1.831 3.41 4.605 3.41ZM109.085 22.243c1.313 0 2.146-.525 2.83-1.461h.055v1.18h2.885v-9.59h-3.014v5.356c0 1.143-.629 1.93-1.665 1.93-.961 0-1.424-.581-1.424-1.63v-5.657h-2.996v6.294c0 2.135 1.147 3.578 3.329 3.578ZM116.166 21.962h3.015v-5.377c0-1.142.554-1.948 1.498-1.948.906 0 1.331.6 1.331 1.63v5.695h3.015v-5.377c0-1.142.536-1.948 1.498-1.948.906 0 1.331.6 1.331 1.63v5.695h3.015v-6.238c0-2.154-1.073-3.634-3.218-3.634-1.221 0-2.238.524-2.978 1.686h-.037c-.481-1.03-1.424-1.686-2.663-1.686-1.368 0-2.275.655-2.866 1.648h-.056v-1.367h-2.885v9.59Z" fill="#000"/><path fill-rule="evenodd" clip-rule="evenodd" d="M15.94 31.327c8.51 0 15.41-6.989 15.41-15.61 0-8.62-6.9-15.61-15.41-15.61C7.426.108.526 7.098.526 15.718c0 8.621 6.9 15.61 15.412 15.61ZM20.746 7.38c.234-.842-.573-1.34-1.31-.808L9.154 13.992c-.8.577-.674 1.725.188 1.725h2.709v-.02h5.278l-4.3 1.536-1.897 6.822c-.234.843.573 1.34 1.31.809l10.285-7.421c.799-.577.673-1.726-.19-1.726H18.43l2.317-8.338Z" fill="url(#b)"/></g><defs><linearGradient id="b" x1=".527" y1="15.72" x2="31.356" y2="15.72" gradientUnits="userSpaceOnUse"><stop stop-color="#F26F21"/><stop offset=".64" stop-color="#EF522D"/><stop offset="1" stop-color="#EE4036"/></linearGradient><clipPath id="a"><path fill="#fff" d="M0 0h131v32H0z"/></clipPath></defs></svg>