<svg width="129" height="32" fill="none" xmlns="http://www.w3.org/2000/svg"><g clip-path="url(#a)"><path d="M37.565 22.473h9.232v-2.81h-5.95V9.08h-3.282v13.393ZM52.267 20.6c-1.316 0-2.002-1.16-2.002-2.903 0-1.742.686-2.922 2.002-2.922 1.316 0 2.02 1.18 2.02 2.922 0 1.742-.704 2.904-2.02 2.904Zm.019 2.174c3.059 0 5.06-2.192 5.06-5.077 0-2.884-2.001-5.076-5.06-5.076-3.04 0-5.08 2.192-5.08 5.076 0 2.885 2.04 5.077 5.08 5.077ZM62.642 25.789c1.409 0 2.65-.319 3.485-1.068.76-.693 1.26-1.742 1.26-3.184v-8.654h-2.891v1.03h-.037c-.556-.806-1.41-1.311-2.67-1.311-2.354 0-3.986 1.985-3.986 4.795 0 2.94 1.984 4.552 4.116 4.552 1.15 0 1.872-.469 2.428-1.106h.075v.956c0 1.161-.538 1.835-1.817 1.835-1.001 0-1.502-.43-1.669-.936h-2.929c.297 2.004 2.02 3.09 4.635 3.09Zm-.019-6.107c-1.13 0-1.872-.936-1.872-2.379 0-1.46.742-2.397 1.872-2.397 1.261 0 1.928 1.086 1.928 2.379 0 1.348-.611 2.397-1.928 2.397ZM73.335 20.6c-1.317 0-2.003-1.16-2.003-2.903 0-1.742.686-2.922 2.003-2.922 1.316 0 2.02 1.18 2.02 2.922 0 1.742-.704 2.904-2.02 2.904Zm.018 2.174c3.059 0 5.062-2.192 5.062-5.077 0-2.884-2.003-5.076-5.062-5.076-3.04 0-5.08 2.192-5.08 5.076 0 2.885 2.04 5.077 5.08 5.077ZM79.296 22.473h3.022v-9.59h-3.022v9.59Zm0-10.92h3.022V9.08h-3.022v2.472ZM83.629 25.639h3.022V21.48h.037c.593.806 1.464 1.293 2.688 1.293 2.484 0 4.134-1.986 4.134-5.095 0-2.885-1.539-5.076-4.06-5.076-1.298 0-2.225.58-2.873 1.442h-.056v-1.162h-2.892V25.64Zm4.968-5.226c-1.297 0-2.039-1.068-2.039-2.623 0-1.555.667-2.735 1.984-2.735 1.297 0 1.91 1.087 1.91 2.735 0 1.63-.705 2.623-1.855 2.623ZM98.43 22.773c2.485 0 4.32-1.087 4.32-3.184 0-2.454-1.965-2.885-3.633-3.166-1.205-.225-2.28-.319-2.28-.993 0-.6.574-.88 1.316-.88.834 0 1.408.262 1.52 1.124h2.781c-.149-1.892-1.595-3.072-4.283-3.072-2.243 0-4.097 1.048-4.097 3.072 0 2.247 1.761 2.697 3.411 2.978 1.26.225 2.41.318 2.41 1.18 0 .618-.575.955-1.483.955-1.001 0-1.631-.468-1.743-1.423h-2.855c.093 2.116 1.836 3.409 4.617 3.409ZM106.855 22.754c1.316 0 2.15-.524 2.836-1.46h.056v1.18h2.892v-9.591h-3.022v5.357c0 1.143-.63 1.93-1.669 1.93-.964 0-1.427-.581-1.427-1.63v-5.657h-3.003v6.294c0 2.135 1.149 3.577 3.337 3.577ZM113.953 22.473h3.022v-5.376c0-1.143.556-1.948 1.502-1.948.908 0 1.334.6 1.334 1.63v5.694h3.022v-5.376c0-1.143.538-1.948 1.502-1.948.908 0 1.335.6 1.335 1.63v5.694h3.022v-6.238c0-2.154-1.076-3.633-3.226-3.633-1.224 0-2.243.524-2.985 1.685h-.037c-.482-1.03-1.428-1.685-2.67-1.685-1.372 0-2.28.655-2.873 1.648h-.056v-1.367h-2.892v9.59Z" fill="#000"/><path fill-rule="evenodd" clip-rule="evenodd" d="M6.685 3.039a15.598 15.598 0 0 0-2.972 2.743c3.545-.333 8.049.21 13.278 2.852 5.583 2.82 10.08 2.916 13.209 2.306a15.602 15.602 0 0 0-1.065-2.497c-3.582.382-8.174-.123-13.526-2.827-3.399-1.717-6.394-2.424-8.924-2.577Zm20.357 2.395C24.214 2.24 20.102.23 15.527.23c-1.343 0-2.647.174-3.89.5 1.683.464 3.471 1.143 5.354 2.093 3.918 1.98 7.3 2.617 10.052 2.61Zm3.827 8.555c-3.78.754-9 .6-15.26-2.563C9.757 8.47 5.099 8.507 1.959 9.212c-.163.037-.321.075-.476.115-.411.903-.74 1.854-.975 2.84.252-.067.512-.132.78-.192 3.81-.856 9.195-.819 15.703 2.469 5.851 2.956 10.509 2.92 13.65 2.214.108-.024.214-.05.318-.075a15.91 15.91 0 0 0-.09-2.594Zm-.414 5.888c-3.744.661-8.812.408-14.846-2.64-5.852-2.957-10.51-2.92-13.65-2.214-.698.156-1.325.347-1.879.548l-.002.27c0 8.62 6.917 15.609 15.45 15.609 7.15 0 13.166-4.909 14.927-11.573Z" fill="url(#b)"/></g><defs><linearGradient id="b" x1=".078" y1="15.843" x2="30.981" y2="15.843" gradientUnits="userSpaceOnUse"><stop stop-color="#F26F21"/><stop offset=".64" stop-color="#EF522D"/><stop offset="1" stop-color="#EE4036"/></linearGradient><clipPath id="a"><path fill="#fff" d="M0 0h129v32H0z"/></clipPath></defs></svg>