<svg width="106" height="37" fill="none" xmlns="http://www.w3.org/2000/svg"><g clip-path="url(#a)" fill-rule="evenodd" clip-rule="evenodd"><path d="M100.156 14.507c.017-.384.148-.754.378-1.065a1.99 1.99 0 0 1 .913-.684 2.029 2.029 0 0 1 1.145-.076c.381.085.728.278.998.555a1.933 1.933 0 0 1 .395 2.125 1.975 1.975 0 0 1-.735.867 2.02 2.02 0 0 1-1.099.325 2.025 2.025 0 0 1-1.438-.61 1.951 1.951 0 0 1-.557-1.438Zm1.995 1.602a1.566 1.566 0 0 0 1.083-.478 1.51 1.51 0 0 0 .424-1.09 1.528 1.528 0 0 0-.427-1.088 1.583 1.583 0 0 0-1.08-.485c-.407.025-.789.2-1.069.492a1.56 1.56 0 0 0-.435 1.079c0 .4.156.786.435 1.078.28.292.662.468 1.069.492Zm-.277-.683h-.418v-1.804h.754a.8.8 0 0 1 .453.087.493.493 0 0 1 .212.445.453.453 0 0 1-.306.445l.335.799h-.453l-.271-.712h-.306v.74Zm0-1.006h.248a.627.627 0 0 0 .241-.029.245.245 0 0 0 .071-.093.239.239 0 0 0 .017-.115.217.217 0 0 0-.021-.1.226.226 0 0 0-.067-.08.705.705 0 0 0-.241-.028h-.212l-.036.445ZM71.624.834l-.547 3.499a6.094 6.094 0 0 0-2.99-.862c-2.473 0-4.227 2.493-4.227 6.027 0 2.429 1.178 3.916 3.114 3.916 1-.055 1.971-.34 2.837-.833l-.588 3.678a9.72 9.72 0 0 1-2.944.474c-3.596 0-5.827-2.672-5.827-6.94C60.452 4.049 63.531 0 67.97 0a5.536 5.536 0 0 1 1.49.179l1.388.353c.365.15.454.18.76.3h.017ZM60.54 3.232a1.2 1.2 0 0 0-.329 0c-1.089 0-1.724.579-2.749 2.134l.3-1.984h-3.02L52.69 16.437h3.355C57.25 8.426 57.55 7.06 59.152 7.06h.24a12.87 12.87 0 0 1 1.266-3.8h-.117v-.029ZM40.58 16.259a7.507 7.507 0 0 1-2.354.445c-1.69 0-2.625-1.006-2.625-2.892.003-.387.033-.773.088-1.156l.212-1.273.153-1.04 1.418-8.948h3.32l-.394 1.931h1.725l-.483 3.17h-1.69l-.877 5.46c0 .237-.058.416-.058.538 0 .682.359.977 1.142.977.307.016.614-.025.906-.121l-.483 2.892v.017ZM27.418 7.48c0 1.66.783 2.787 2.537 3.649 1.325.648 1.566.856 1.566 1.452 0 .798-.588 1.185-1.901 1.185a8.48 8.48 0 0 1-2.99-.532l-.454 3.025.153.03.59.12c.21.03.482.087.87.116.789.058 1.425.122 1.842.122 3.532 0 5.133-1.394 5.133-4.361a3.532 3.532 0 0 0-.553-2.213 3.63 3.63 0 0 0-1.801-1.437c-1.39-.653-1.536-.804-1.536-1.423 0-.717.541-1.07 1.63-1.07.789.019 1.575.088 2.355.208l.482-3.024a20.806 20.806 0 0 0-2.943-.272c-3.773 0-5.068 1.99-5.039 4.424h.06ZM98.225 16.41h-3.173l.153-1.278a3.857 3.857 0 0 1-1.367 1.078c-.534.252-1.12.38-1.712.374-2.448 0-4.05-2.163-4.05-5.425 0-4.361 2.479-8.04 5.44-8.04 1.295 0 2.26.578 3.196 1.776l.724-4.627h3.296L98.225 16.38v.03Zm-4.921-3.06c1.566 0 2.654-1.81 2.654-4.418 0-1.66-.635-2.58-1.766-2.58-1.506 0-2.595 1.84-2.595 4.39 0 1.735.588 2.609 1.724 2.609h-.017ZM51.152 16.145a11.366 11.366 0 0 1-3.443.532c-3.715 0-5.68-2.019-5.68-5.877 0-4.505 2.478-7.802 5.833-7.802 2.76 0 4.526 1.868 4.526 4.778a14.224 14.224 0 0 1-.453 3.215h-6.61a2.028 2.028 0 0 0-.036.417c0 1.544 1.001 2.313 2.944 2.313a7.905 7.905 0 0 0 3.472-.833l-.511 3.24-.042.017ZM49.28 8.337a5.833 5.833 0 0 0 0-.648c0-1.07-.588-1.695-1.571-1.695s-1.796.833-2.084 2.343h3.655ZM14.01 16.411h-3.32l1.9-12.372-4.284 12.372H6.039L5.77 4.126 3.744 16.411H.636L3.232.326h4.797l.124 9.971 3.26-9.97h5.192L14.01 16.41ZM22.615 10.593c-.359 0-.512-.058-.753-.058-1.902 0-2.837.682-2.837 1.99a1.178 1.178 0 0 0 .289.922 1.215 1.215 0 0 0 .888.414c1.33 0 2.354-1.337 2.384-3.268h.03Zm2.42 5.818h-2.779l.059-1.365a4.02 4.02 0 0 1-1.537 1.219 4.095 4.095 0 0 1-1.942.354c-1.813 0-3.049-1.457-3.049-3.563 0-3.204 2.172-5.043 5.857-5.043.439.005.877.034 1.313.087.07-.28.109-.568.117-.856 0-.862-.588-1.192-2.142-1.192-.94 0-1.876.13-2.779.388l-.423.15-.3.087.453-2.938a13.09 13.09 0 0 1 3.985-.712c2.866 0 4.379 1.336 4.379 3.83a17.241 17.241 0 0 1-.27 2.608l-.666 4.662-.123.827-.065.665-.06.474v.33l-.028-.012ZM77.387 10.592c-.33 0-.512-.058-.753-.058-1.901 0-2.867.683-2.867 1.99a1.18 1.18 0 0 0 .29.949 1.219 1.219 0 0 0 .917.41c1.36 0 2.355-1.336 2.413-3.268v-.023Zm2.42 5.819h-2.779l.083-1.371a4.015 4.015 0 0 1-1.56 1.232 4.088 4.088 0 0 1-1.972.341c-1.813 0-3.05-1.457-3.05-3.563 0-3.204 2.173-5.043 5.887-5.043.455.004.909.032 1.36.087.07-.281.109-.568.118-.856 0-.862-.59-1.192-2.143-1.192-.94 0-1.875.13-2.778.388l-.483.121-.3.087.453-2.938a13.089 13.089 0 0 1 3.985-.712c2.867 0 4.38 1.336 4.38 3.83a17.267 17.267 0 0 1-.271 2.608l-.695 4.627-.094.833-.088.653-.06.446.03.416-.023.006ZM89.136 3.234a1.198 1.198 0 0 0-.335 0c-1.084 0-1.72.579-2.743 2.135l.3-1.984h-3.02l-2.054 13.083h3.349c1.213-8.01 1.513-9.376 3.114-9.376h.241c.234-1.32.66-2.6 1.266-3.8h-.118v-.058Z" fill="#FD0C15"/><path d="M75.127 29.135c0 2.967-.936 4.72-2.42 4.72-1.082 0-1.718-1.157-1.718-2.893 0-2.076.965-4.447 2.472-4.447 1.242 0 1.666 1.272 1.666 2.637v-.017Zm3.29.029c0-3.291-1.66-5.871-4.773-5.871-3.591 0-5.887 3.112-5.887 7.716 0 3.29 1.39 5.992 4.768 5.992 3.38 0 5.922-2.377 5.922-7.837h-.03ZM68.781 21.008l-.512 3.47a5.409 5.409 0 0 0-2.778-.862c-2.355 0-3.956 2.493-3.956 6.027 0 2.43 1.09 3.916 2.902 3.916a5.529 5.529 0 0 0 2.667-.804l-.554 3.684c-.892.31-1.831.47-2.778.474-3.355 0-5.468-2.666-5.468-6.94 0-5.784 2.902-9.792 7.063-9.792.47-.01.938.05 1.39.18l1.265.358c.275.056.54.156.783.295l-.024-.006ZM48.162 23.378a1.195 1.195 0 0 0-.336-.029c-1.024 0-1.595.579-2.566 2.135l.306-1.984h-2.808l-1.907 13.083h3.114c1.118-8.01 1.418-9.399 2.896-9.399a.857.857 0 0 1 .241.029 13.895 13.895 0 0 1 1.178-3.8l-.118-.058v.023ZM88.883 36.438H85.94l.153-1.272c-.33.453-.765.821-1.27 1.074a3.58 3.58 0 0 1-1.632.378c-2.266 0-3.773-2.163-3.773-5.431 0-4.361 2.325-8.04 5.074-8.04 1.206 0 2.142.579 2.99 1.81l.689-4.598h3.067l-2.355 16.08Zm-4.62-3.082c1.477 0 2.472-1.81 2.472-4.42 0-1.665-.59-2.556-1.66-2.556-1.419 0-2.414 1.81-2.414 4.396 0 1.735.542 2.58 1.601 2.58ZM18.93 36.404a9.699 9.699 0 0 1-3.196.533c-3.473 0-5.297-2.013-5.297-5.871.011-4.46 2.336-7.802 5.456-7.802 2.567 0 4.197 1.839 4.197 4.777a15.78 15.78 0 0 1-.388 3.233h-6.205a2.414 2.414 0 0 0-.029.41c0 1.516.936 2.285 2.749 2.285a6.933 6.933 0 0 0 3.208-.827l-.518 3.262h.023Zm-1.765-7.802v-.654c0-1.07-.542-1.688-1.478-1.688-.936 0-1.695.827-1.995 2.342h3.473ZM56.014 36.404a9.734 9.734 0 0 1-3.202.533c-3.532 0-5.298-2.013-5.298-5.871 0-4.482 2.355-7.802 5.433-7.802 2.567 0 4.227 1.839 4.227 4.777a15.78 15.78 0 0 1-.389 3.233h-6.21a2.407 2.407 0 0 0 0 .41c0 1.516.936 2.285 2.749 2.285a6.916 6.916 0 0 0 3.184-.827l-.512 3.262h.018Zm-1.766-7.802a5.746 5.746 0 0 0 0-.654c0-1.07-.541-1.688-1.477-1.688s-1.69.827-1.996 2.342h3.473ZM99.479 36.404a9.958 9.958 0 0 1-3.197.533c-3.472 0-5.297-2.013-5.297-5.871 0-4.482 2.325-7.802 5.462-7.802 2.567 0 4.197 1.839 4.197 4.777a15.446 15.446 0 0 1-.394 3.233h-6.193a2.407 2.407 0 0 0 0 .41c0 1.516.936 2.285 2.75 2.285a6.899 6.899 0 0 0 3.225-.827l-.553 3.262Zm-1.766-7.802v-.654c0-1.07-.542-1.688-1.478-1.688-.936 0-1.695.827-1.995 2.342h3.473ZM9.695 23.975a4.495 4.495 0 0 0-2.602-.74c-1.266 0-2.26.266-2.26 1.567 0 2.32 4.585 1.458 4.585 6.432 0 4.535-3.02 5.726-5.763 5.726A9.43 9.43 0 0 1 0 36.11l.753-3.326a4.835 4.835 0 0 0 2.944.949c.994 0 2.507-.266 2.507-1.955 0-2.643-4.591-1.66-4.591-6.293 0-4.24 2.684-5.489 5.298-5.489 1.448 0 2.837.208 3.62.746l-.813 3.233h-.023ZM28.048 36.405a6.482 6.482 0 0 1-2.772.503c-2.72 0-4.41-2.666-4.41-5.934 0-4.268 2.444-7.652 6.04-7.652a6.61 6.61 0 0 1 2.943.862l-.712 3.112a3.75 3.75 0 0 0-2.06-.688c-1.66 0-2.867 1.515-2.867 4.181 0 1.544.877 2.823 2.231 2.823a3.9 3.9 0 0 0 2.084-.579l-.453 3.384-.024-.012ZM39.71 33.113c-.154 1.157-.307 2.221-.395 3.378h-2.99l.24-2.105c-.935 1.428-1.9 2.406-3.625 2.406-1.872 0-2.896-1.961-2.896-4.483.01-.915.09-1.827.241-2.73l.848-6.05h3.35l-.93 6.079a14.672 14.672 0 0 0-.213 1.99c0 .769.365 1.544 1.272 1.486 1.353 0 2.172-1.637 2.413-3.563l.936-5.992h3.243l-1.495 9.584ZM102.604 36.346h-.518v-2.169h-.724v-.474h1.966v.474h-.724v2.17ZM105.954 36.346h-.483v-2.198l-.453 2.198h-.483l-.453-2.198v2.198h-.483v-2.643h.754l.423 2.077h.03l.424-2.077h.724v2.643Z" fill="#F3AE12"/></g><defs><clipPath id="a"><path fill="#fff" d="M0 0h106v37H0z"/></clipPath></defs></svg>