<?xml version="1.0" encoding="utf-8"?>
<!-- Generator: Adobe Illustrator 26.5.0, SVG Export Plug-In . SVG Version: 6.00 Build 0)  -->
<svg version="1.1" id="Layer_1" xmlns="http://www.w3.org/2000/svg" xmlns:xlink="http://www.w3.org/1999/xlink" x="0px" y="0px"
	 viewBox="0 0 500 150" style="enable-background:new 0 0 500 150;" xml:space="preserve">
<style type="text/css">
	.st0{enable-background:new    ;}
	.st1{clip-path:url(#SVGID_00000002353486661307334470000013685220447460449697_);}
	.st2{fill:url(#SVGID_00000081618464997215747790000009040884629497100931_);}
	.st3{clip-path:url(#SVGID_00000127728465127489509780000009892336908690541975_);}
	.st4{fill:url(#SVGID_00000122701827021026702240000015187259729464330633_);}
	.st5{fill:url(#SVGID_00000101098380513231723000000010078714385877821116_);}
	.st6{fill:url(#SVGID_00000045609837020290902020000004138467994492851620_);}
	.st7{fill:url(#SVGID_00000124872582117589474450000000553038705153136052_);}
	.st8{clip-path:url(#SVGID_00000070799612600139909300000016981432952051759286_);}
	.st9{fill:url(#SVGID_00000072984102918263305470000002493303845556832913_);}
	.st10{fill:#FFFFFF;}
	.st11{fill:#242C36;}
	.st12{fill:url(#SVGID_00000069372499795395502440000013930475592705447588_);}
	.st13{fill:url(#SVGID_00000086693634464614799180000013162113360715243433_);}
	.st14{fill:url(#SVGID_00000094597765004343544590000012491849888269241269_);}
	.st15{fill:url(#SVGID_00000089554065855047031110000015666025631253911185_);}
	.st16{fill:url(#SVGID_00000182487974859115838680000006181930556327016104_);}
</style>
<g>
	<g class="st0">
		<defs>
			<path id="SVGID_1_" class="st0" d="M65.2,146.2l9.5,1.1c6.2,0.7,12.7,0.6,19.2-0.5c12-2,22.8-6.9,31.8-14l-9.5-1.1
				c-9,7.1-19.8,12-31.8,14C77.9,146.7,71.5,146.9,65.2,146.2z"/>
		</defs>
		<use xlink:href="#SVGID_1_"  style="overflow:visible;fill:#0065E7;"/>
		<clipPath id="SVGID_00000121998880641080771560000002378337027244429995_">
			<use xlink:href="#SVGID_1_"  style="overflow:visible;"/>
		</clipPath>
		<g style="clip-path:url(#SVGID_00000121998880641080771560000002378337027244429995_);">
			
				<linearGradient id="SVGID_00000168822915650464111960000002063390119398746762_" gradientUnits="userSpaceOnUse" x1="1032.1395" y1="-714.3936" x2="1094.0153" y2="-714.3936" gradientTransform="matrix(0.9869 -0.1613 0.1613 0.9869 -838.2343 1017.2833)">
				<stop  offset="0" style="stop-color:#F26F21"/>
				<stop  offset="0.6389" style="stop-color:#F0522E"/>
				<stop  offset="1" style="stop-color:#EE4036"/>
			</linearGradient>
			<path style="fill:url(#SVGID_00000168822915650464111960000002063390119398746762_);" d="M65.2,146.2l9.5,1.1
				c6.2,0.7,12.7,0.6,19.2-0.5c12-2,22.8-6.9,31.8-14l-9.5-1.1c-9,7.1-19.8,12-31.8,14C77.9,146.7,71.5,146.9,65.2,146.2"/>
		</g>
	</g>
	<g class="st0">
		<defs>
			<path id="SVGID_00000177463297999225926980000003984235037236393095_" class="st0" d="M90.9,3.9l-9.5-1.1
				c31,3.5,57,27.8,61.9,60.6c2.3,15.3-0.4,30.3-6.8,43.2l9.5,1.1c6.4-12.9,9.1-27.9,6.8-43.2C148,31.7,121.9,7.4,90.9,3.9z"/>
		</defs>
		<use xlink:href="#SVGID_00000177463297999225926980000003984235037236393095_"  style="overflow:visible;fill:#0065E7;"/>
		<clipPath id="SVGID_00000170974914768356753940000012451591192431709886_">
			<use xlink:href="#SVGID_00000177463297999225926980000003984235037236393095_"  style="overflow:visible;"/>
		</clipPath>
		<g style="clip-path:url(#SVGID_00000170974914768356753940000012451591192431709886_);">
			
				<linearGradient id="SVGID_00000000925084011335880560000014414508228747549083_" gradientUnits="userSpaceOnUse" x1="1071.3202" y1="-795.7932" x2="1131.7709" y2="-795.7932" gradientTransform="matrix(0.9869 -0.1613 0.1613 0.9869 -838.2343 1017.2833)">
				<stop  offset="0" style="stop-color:#F26F21"/>
				<stop  offset="0.6389" style="stop-color:#F0522E"/>
				<stop  offset="1" style="stop-color:#EE4036"/>
			</linearGradient>
			<path style="fill:url(#SVGID_00000000925084011335880560000014414508228747549083_);" d="M136.5,106.7l9.5,1.1
				c6.4-12.9,9.1-27.9,6.8-43.2C148,31.7,121.9,7.4,90.9,3.9l-9.5-1.1c31,3.5,57,27.8,61.9,60.6C145.6,78.8,142.9,93.8,136.5,106.7"
				/>
		</g>
	</g>
	<g>
		
			<linearGradient id="SVGID_00000002353393440250645580000009134602844798499504_" gradientUnits="userSpaceOnUse" x1="1084.8474" y1="-716.259" x2="1117.4976" y2="-716.259" gradientTransform="matrix(0.9869 -0.1613 0.1613 0.9869 -838.2343 1017.2833)">
			<stop  offset="0" style="stop-color:#F26F21"/>
			<stop  offset="0.6389" style="stop-color:#F0522E"/>
			<stop  offset="1" style="stop-color:#EE4036"/>
		</linearGradient>
		<polygon style="fill:url(#SVGID_00000002353393440250645580000009134602844798499504_);" points="116.2,131.7 125.7,132.8 
			149.7,133.8 140.2,132.8 		"/>
	</g>
	<g>
		
			<linearGradient id="SVGID_00000012444819044979839080000007590459729731738276_" gradientUnits="userSpaceOnUse" x1="1108.9132" y1="-730.6555" x2="1124.0585" y2="-730.6555" gradientTransform="matrix(0.9869 -0.1613 0.1613 0.9869 -838.2343 1017.2833)">
			<stop  offset="0" style="stop-color:#F26F21"/>
			<stop  offset="0.6389" style="stop-color:#F0522E"/>
			<stop  offset="1" style="stop-color:#EE4036"/>
		</linearGradient>
		<polygon style="fill:url(#SVGID_00000012444819044979839080000007590459729731738276_);" points="145.5,124.4 155,125.5 
			146,107.8 136.5,106.7 		"/>
	</g>
	<g>
		
			<linearGradient id="SVGID_00000152248850000083772990000013669173980241622959_" gradientUnits="userSpaceOnUse" x1="980.9279" y1="-783.3647" x2="1122.603" y2="-783.3647" gradientTransform="matrix(0.9869 -0.1613 0.1613 0.9869 -838.2343 1017.2833)">
			<stop  offset="0" style="stop-color:#FCB833"/>
			<stop  offset="0.4295" style="stop-color:#F89B2C"/>
			<stop  offset="1" style="stop-color:#F26F21"/>
		</linearGradient>
		<path style="fill:url(#SVGID_00000152248850000083772990000013669173980241622959_);" d="M62.3,3.3C23.7,9.7-2.6,46.8,3.5,86.1
			c6.1,39.3,42.3,66,80.9,59.6c12-2,22.8-6.9,31.8-14l24,1.1c0.4,0,0.8,0,1.2-0.1c3.7-0.6,5.9-4.8,4.1-8.3l-8.9-17.7
			c6.4-12.9,9.1-27.9,6.8-43.2c-5.8-39.3-41.9-66.3-80.5-60.2C62.7,3.3,62.5,3.3,62.3,3.3z"/>
	</g>
	
		<image style="overflow:visible;opacity:0.8938;" width="437" height="408" xlink:href="4FFFE42C.png"  transform="matrix(0.24 0 0 0.24 37.2 4.03)">
	</image>
	<g class="st0">
		<defs>
			<path id="SVGID_00000126300007741404707200000001068219497946286483_" class="st0" d="M140.2,132.8l9.5,1.1c0.4,0,0.8,0,1.2-0.1
				c3.7-0.6,5.9-4.8,4.1-8.3l-9.5-1.1c1.8,3.5-0.4,7.7-4.1,8.3C141,132.8,140.6,132.8,140.2,132.8z"/>
		</defs>
		<clipPath id="SVGID_00000089565285150727380070000014242053253998757760_">
			<use xlink:href="#SVGID_00000126300007741404707200000001068219497946286483_"  style="overflow:visible;"/>
		</clipPath>
		<g style="clip-path:url(#SVGID_00000089565285150727380070000014242053253998757760_);">
			
				<linearGradient id="SVGID_00000135662317714296134420000014187597001124570511_" gradientUnits="userSpaceOnUse" x1="1108.3297" y1="-717.4407" x2="1124.3348" y2="-717.4407" gradientTransform="matrix(0.9869 -0.1613 0.1613 0.9869 -838.2343 1017.2833)">
				<stop  offset="0" style="stop-color:#F26F21"/>
				<stop  offset="0.6389" style="stop-color:#F0522E"/>
				<stop  offset="1" style="stop-color:#EE4036"/>
			</linearGradient>
			<path style="fill:url(#SVGID_00000135662317714296134420000014187597001124570511_);" d="M140.2,132.8l9.5,1.1
				c0.4,0,0.8,0,1.2-0.1c3.7-0.6,5.9-4.8,4.1-8.3l-9.5-1.1c1.8,3.5-0.4,7.7-4.1,8.3C141,132.8,140.6,132.8,140.2,132.8"/>
		</g>
	</g>
	<path class="st10" d="M75.1,118.3C49.7,118.3,29,97.6,29,72.2c0-25.4,20.7-46,46.1-46c25.4,0,46.1,20.6,46.1,46
		c0,8.6-2.3,17-6.8,24.3l12.8,20.7L96.5,117l-2-3.1C88.4,116.9,81.9,118.3,75.1,118.3z M75.1,50.8c-11.8,0-21.4,9.6-21.4,21.4
		c0,11.9,9.6,21.6,21.4,21.6c1.1,0,2.2-0.1,3.2-0.2L66.1,74.6h30.2c0.1-0.8,0.2-1.6,0.2-2.5C96.5,60.4,86.9,50.8,75.1,50.8z"/>
	<path class="st10" d="M96.9,116.3l-2.1-3.3c-5.9,2.9-12.6,4.5-19.6,4.5c-25,0-45.4-20.2-45.4-45.4c0-25,20.4-45.2,45.4-45.2
		c25,0,45.4,20.2,45.4,45.2c0,8.9-2.5,17.2-6.9,24.3l12.3,20L96.9,116.3z M79.9,94L68.1,75.6H97c0.2-1.2,0.3-2.2,0.3-3.4
		C97.3,60,87.3,50,75.1,50c-12.2,0-22.2,10-22.2,22.2c0,12.4,10,22.4,22.2,22.4C76.8,94.5,78.4,94.4,79.9,94z"/>
	<g>
		<path class="st11" d="M196.4,121.2c-3.9,0-6.9,3-6.9,6.8c0,3.8,3,6.8,6.9,6.8c1.9,0,3.9-0.9,5.4-2.3l1.9,2.2
			c-2,1.9-4.8,3.2-7.5,3.2c-5.7,0-10.1-4.3-10.1-9.9c0-5.5,4.5-9.8,10.2-9.8c2.7,0,5.5,1.1,7.4,3l-1.9,2.4
			C200.4,122.2,198.4,121.2,196.4,121.2z"/>
		<path class="st11" d="M221.5,137.8l-3.5-5.9c-0.3,0-0.6,0-0.9,0h-4.6v5.8h-3.3v-19.4h7.9c5,0,7.8,2.4,7.8,6.6c0,3.1-1.4,5.3-4,6.3
			l4.4,6.5H221.5z M217,129c3,0,4.7-1.3,4.7-3.9c0-2.5-1.7-3.8-4.7-3.8h-4.6v7.7H217z"/>
		<path class="st11" d="M239,131.4v6.5h-3.2v-6.3l-7.2-13.1h3.3l5.5,9.5l5.4-9.5h3.3L239,131.4z"/>
		<path class="st11" d="M266.2,125c0,4.4-2.8,6.9-7.7,6.9h-4.5v5.8h-3.3v-19.4h7.7C263.4,118.4,266.2,120.8,266.2,125z M263.1,125.1
			c0-2.5-1.7-3.8-4.7-3.8h-4.3v7.7h4.3C261.4,129,263.1,127.8,263.1,125.1z"/>
		<path class="st11" d="M284.8,118.4v2.9h-6.2v16.5h-3.3v-16.5h-6.1v-2.9H284.8z"/>
		<path class="st11" d="M307.5,128.1c0,5.5-4.5,9.8-10.3,9.8c-5.8,0-10.3-4.3-10.3-9.8c0-5.6,4.5-9.8,10.3-9.8
			C303,118.3,307.5,122.6,307.5,128.1z M290.2,128.1c0,3.9,3.2,6.9,7,6.9c3.8,0,6.9-3,6.9-6.9c0-3.9-3.1-6.8-6.9-6.8
			C293.4,121.3,290.2,124.3,290.2,128.1z"/>
		<path class="st11" d="M337.3,118.4v2.9h-10.6v5.3h9.5v2.9h-9.5v5.3h10.9v2.9h-14.2v-19.4H337.3z"/>
		<path class="st11" d="M345.8,118.4l4.7,6.7l4.8-6.7h3.8l-6.5,9.3l7.1,10.1h-3.9l-5.2-7.3l-5.2,7.3h-3.8l7.1-10l-6.6-9.5H345.8z"/>
		<path class="st11" d="M373.1,121.2c-3.9,0-6.9,3-6.9,6.8c0,3.8,3,6.8,6.9,6.8c1.9,0,3.9-0.9,5.4-2.3l1.9,2.2
			c-2,1.9-4.8,3.2-7.5,3.2c-5.7,0-10.1-4.3-10.1-9.9c0-5.5,4.5-9.8,10.2-9.8c2.7,0,5.5,1.1,7.4,3l-1.9,2.4
			C377.1,122.2,375,121.2,373.1,121.2z"/>
		<path class="st11" d="M389.1,118.4v8.4h10.3v-8.4h3.3v19.4h-3.3v-8h-10.3v8h-3.3v-19.4H389.1z"/>
		<path class="st11" d="M422.4,133.4h-9.8l-1.9,4.4h-3.4l8.6-19.4h3.4l8.5,19.4h-3.5L422.4,133.4z M421.1,130.5l-3.7-8.6l-3.7,8.6
			H421.1z"/>
		<path class="st11" d="M435.6,118.4l10.4,13.9v-13.9h3.2v19.4H446l-10.3-13.9v13.9h-3.3v-19.4H435.6z"/>
		<path class="st11" d="M469.7,128.3h2.9v7.2c-2,1.5-4.9,2.5-7.5,2.5c-5.7,0-10.2-4.3-10.2-9.8c0-5.5,4.5-9.8,10.4-9.8
			c2.8,0,5.5,1.1,7.5,2.7l-1.9,2.4c-1.5-1.4-3.6-2.2-5.6-2.2c-4,0-7.1,3-7.1,6.9c0,3.9,3.1,6.9,7.1,6.9c1.4,0,3.1-0.5,4.5-1.3V128.3
			z"/>
		<path class="st11" d="M493.1,118.4v2.9h-10.6v5.3h9.5v2.9h-9.5v5.3h10.9v2.9h-14.2v-19.4H493.1z"/>
	</g>
	<g>
		
			<linearGradient id="SVGID_00000059996769593119466510000010402208442326977975_" gradientUnits="userSpaceOnUse" x1="185.2353" y1="65.5597" x2="263.865" y2="65.5597">
			<stop  offset="0" style="stop-color:#F26F21"/>
			<stop  offset="0.6389" style="stop-color:#F0522E"/>
			<stop  offset="1" style="stop-color:#EE4036"/>
		</linearGradient>
		<path style="fill:url(#SVGID_00000059996769593119466510000010402208442326977975_);" d="M253.6,92.8l9.5,10.9h-13.2l-3.9-4.5
			c-5.9,3.7-13.1,5.9-21.3,5.9c-23.8,0-39.4-18.4-39.4-39.7c0-21.2,15.5-39.6,39.4-39.6c23.7,0,39.3,18.4,39.3,39.6
			C263.9,75.9,260.1,85.6,253.6,92.8z M238.9,91.2l-16.5-18.8h13.2l10.9,12.5c4.4-5.2,6.9-12.1,6.9-19.4c0-15.6-11.7-29.3-28.9-29.3
			c-17.3,0-28.8,13.7-28.8,29.3c0,15.6,11.5,29.4,28.8,29.4C230,94.9,234.8,93.6,238.9,91.2z"/>
		
			<linearGradient id="SVGID_00000114032500729998129970000002137189062051711887_" gradientUnits="userSpaceOnUse" x1="281.034" y1="76.4409" x2="336.8076" y2="76.4409">
			<stop  offset="0" style="stop-color:#F26F21"/>
			<stop  offset="0.6389" style="stop-color:#F0522E"/>
			<stop  offset="1" style="stop-color:#EE4036"/>
		</linearGradient>
		<path style="fill:url(#SVGID_00000114032500729998129970000002137189062051711887_);" d="M281,76.4c0-15.2,11.4-28.2,27.9-28.2
			s27.9,13,27.9,28.2c0,15.2-11.4,28.2-27.9,28.2S281,91.6,281,76.4z M326.2,76.3c0-9.6-6.8-17.8-17.3-17.8
			c-10.3,0-17.4,8.2-17.4,17.8c0,9.7,7.1,18,17.4,18C319.4,94.4,326.2,86.1,326.2,76.3z"/>
		
			<linearGradient id="SVGID_00000172423466329892733030000013557354575015999888_" gradientUnits="userSpaceOnUse" x1="355.0703" y1="64.3021" x2="369.0684" y2="64.3021">
			<stop  offset="0" style="stop-color:#F26F21"/>
			<stop  offset="0.6389" style="stop-color:#F0522E"/>
			<stop  offset="1" style="stop-color:#EE4036"/>
		</linearGradient>
		<path style="fill:url(#SVGID_00000172423466329892733030000013557354575015999888_);" d="M355.1,31.7c0-3.8,3-6.9,7-6.9
			c4,0,7,3.1,7,6.9c0,4-3,7.1-7,7.1C358,38.8,355.1,35.8,355.1,31.7z M356.9,49.1h10.3v54.7h-10.3V49.1z"/>
		
			<linearGradient id="SVGID_00000110452239892585022300000002075747690420203700_" gradientUnits="userSpaceOnUse" x1="390.8307" y1="75.8942" x2="438.0742" y2="75.8942">
			<stop  offset="0" style="stop-color:#F26F21"/>
			<stop  offset="0.6389" style="stop-color:#F0522E"/>
			<stop  offset="1" style="stop-color:#EE4036"/>
		</linearGradient>
		<path style="fill:url(#SVGID_00000110452239892585022300000002075747690420203700_);" d="M438.1,72.4v31.4h-10.3V73.9
			c0-10.8-5.6-16.5-13.3-16.5c-7.7,0-13.3,5.7-13.3,16.5v29.9h-10.3V49.1h10.3v7.7c3.2-5.1,9-8.7,16.5-8.7
			C428.3,48,438.1,56.1,438.1,72.4z"/>
		
			<linearGradient id="SVGID_00000002385638809088096870000012675243502284835247_" gradientUnits="userSpaceOnUse" x1="454.588" y1="70.4263" x2="496.3636" y2="70.4263">
			<stop  offset="0" style="stop-color:#F26F21"/>
			<stop  offset="0.6389" style="stop-color:#F0522E"/>
			<stop  offset="1" style="stop-color:#EE4036"/>
		</linearGradient>
		<path style="fill:url(#SVGID_00000002385638809088096870000012675243502284835247_);" d="M496.4,74.6h-16.3v16.5h-9.3V74.6h-16.2
			v-9.1h16.2V49.8h9.3v15.7h16.3V74.6z"/>
	</g>
</g>
</svg>
