<svg width="91" height="28" fill="none" xmlns="http://www.w3.org/2000/svg"><g clip-path="url(#a)"><path d="M12 26c6.628 0 12-5.372 12-12S18.628 2 12 2 0 7.372 0 14s5.372 12 12 12Z" fill="#009393"/><path fill-rule="evenodd" clip-rule="evenodd" d="M17.106 9.2v1.915h-3.833v1.327c2.692.142 4.712.724 4.727 1.422v1.456c-.015.698-2.035 1.281-4.727 1.423V20h-2.546v-3.257C8.035 16.6 6.015 16.019 6 15.32v-1.456c.015-.698 2.035-1.28 4.727-1.422v-1.327H6.894V9.2h10.212ZM12 15.743c2.873 0 5.275-.493 5.862-1.15-.498-.559-2.3-.998-4.59-1.118v1.39a24.249 24.249 0 0 1-2.545 0v-1.39c-2.288.12-4.091.56-4.59 1.117.588.658 2.99 1.15 5.863 1.15Z" fill="#fff"/></g><path d="M47.307 6.455h1.761v9.63c0 .994-.234 1.882-.703 2.664-.464.776-1.12 1.39-1.967 1.84-.848.444-1.842.667-2.983.667s-2.136-.223-2.983-.668c-.848-.45-1.506-1.063-1.975-1.84-.464-.78-.696-1.669-.696-2.663v-9.63h1.762v9.488c0 .71.156 1.342.468 1.897.313.549.758.982 1.336 1.3.582.312 1.278.468 2.088.468s1.505-.156 2.088-.469a3.301 3.301 0 0 0 1.335-1.3c.313-.553.469-1.186.469-1.896V6.455ZM60.54 10.09a2.23 2.23 0 0 0-1.037-1.676c-.606-.398-1.35-.597-2.23-.597-.644 0-1.207.104-1.69.313-.478.208-.852.494-1.122.86a2.06 2.06 0 0 0-.398 1.242c0 .388.092.722.277 1.001.19.275.43.505.724.69.294.18.602.328.924.447.322.113.617.206.887.277l1.478.398c.378.099.8.236 1.264.411a5.84 5.84 0 0 1 1.342.718c.431.298.786.681 1.066 1.15.279.469.419 1.044.419 1.726 0 .786-.206 1.496-.618 2.13-.408.635-1.004 1.14-1.79 1.514-.781.374-1.73.56-2.848.56-1.042 0-1.944-.167-2.706-.504-.758-.336-1.354-.805-1.79-1.406-.43-.601-.675-1.3-.731-2.095h1.818c.047.55.232 1.004.554 1.364.326.355.738.62 1.236.795.501.17 1.041.256 1.619.256.672 0 1.276-.11 1.81-.327.536-.223.96-.53 1.272-.923.313-.398.469-.862.469-1.392 0-.483-.135-.876-.405-1.18-.27-.302-.625-.549-1.065-.738-.44-.19-.916-.355-1.428-.497l-1.79-.511c-1.136-.327-2.035-.793-2.698-1.4-.663-.606-.995-1.399-.995-2.379 0-.814.22-1.524.66-2.13.446-.611 1.042-1.085 1.79-1.421.753-.34 1.594-.511 2.522-.511.937 0 1.77.168 2.5.504.73.331 1.307.786 1.733 1.364.43.577.658 1.233.682 1.967H60.54ZM69.828 21H65.34V6.455h4.688c1.411 0 2.618.29 3.622.873 1.004.578 1.773 1.409 2.308 2.493.535 1.08.803 2.372.803 3.878 0 1.515-.27 2.82-.81 3.913a5.77 5.77 0 0 1-2.358 2.514c-1.032.583-2.287.874-3.764.874Zm-2.727-1.563h2.614c1.202 0 2.199-.232 2.99-.696a4.288 4.288 0 0 0 1.768-1.981c.388-.857.582-1.877.582-3.061 0-1.174-.191-2.185-.575-3.033-.383-.852-.956-1.505-1.719-1.96-.762-.46-1.711-.689-2.848-.689h-2.812v11.42Zm11.213-11.42V6.455h10.909v1.562h-4.574V21h-1.762V8.017h-4.573Z" fill="#000"/><defs><clipPath id="a"><path fill="#fff" transform="translate(0 2)" d="M0 0h24v24H0z"/></clipPath></defs></svg>