<svg width="87" height="37" fill="none" xmlns="http://www.w3.org/2000/svg"><g clip-path="url(#a)"><path d="m35.17 19.748-4.36 11.594-.458-2.357c-1.066-2.889-3.44-5.919-6.177-7.147l3.985 14.9h4.714l7.01-16.99h-4.713ZM38.905 36.747l2.787-17.017h4.452l-2.787 17.017h-4.452ZM59.515 20.15a11.144 11.144 0 0 0-3.99-.736c-4.407 0-7.505 2.312-7.528 5.617-.032 2.447 2.21 3.81 3.894 4.623 1.684.813 2.32 1.354 2.316 2.113 0 1.138-1.373 1.661-2.668 1.661a9.036 9.036 0 0 1-4.187-.903l-.581-.275-.623 3.81a13.68 13.68 0 0 0 4.965.904c4.677 0 7.715-2.285 7.752-5.811 0-1.941-1.171-3.413-3.743-4.628-1.551-.786-2.512-1.31-2.499-2.108 0-.71.806-1.463 2.554-1.463a7.812 7.812 0 0 1 3.331.654l.398.195.609-3.69v.037ZM70.927 19.748h-3.431c-1.067 0-1.867.298-2.339 1.413l-6.612 15.59h4.676l.939-2.56h5.701c.138.592.545 2.547.545 2.547h4.118l-3.597-16.99Zm-5.49 10.953c.37-.98 1.775-4.759 1.775-4.759s.366-.984.59-1.62l.297 1.467 1.035 4.912h-3.698Z" fill="#11559C"/><path d="M26.77 19.74h-7.185l-.041.294c5.587 1.408 9.285 4.867 10.804 8.957l-1.56-7.82c-.27-1.074-1.053-1.395-2.019-1.43Z" fill="#F2A724"/><path d="M6.113 15.626H3.276L0 1.056 3.14.537 5.38 11.942 11.088.69h3.015l-7.99 14.935ZM20.885 10.863h-6.773c-.187 2.027.77 2.908 2.385 2.908 1.372 0 2.548-.492 3.83-1.292v2.028a8.253 8.253 0 0 1-4.416 1.268c-2.952 0-4.896-1.657-4.31-5.418.525-3.381 2.9-5.418 5.65-5.418 3.167 0 4.22 2.353 3.762 5.306-.037.212-.096.474-.119.623l-.01-.005Zm-3.986-4.14c-1.048 0-2.032.822-2.494 2.524h4.197c.077-1.617-.435-2.524-1.703-2.524ZM25.296 9.589l-.915 5.973h-2.636L23.37 5.151h2.228v2.072c.888-1.205 2.096-2.221 3.748-2.307v2.565c-.785.06-1.55.275-2.249.635a5.822 5.822 0 0 0-1.815 1.455l.014.018ZM29.323 15.563 30.947 5.15h2.622l-1.624 10.412h-2.622Zm3.23-12.16a1.27 1.27 0 0 1-1.042-.4 1.234 1.234 0 0 1-.303-1.062A1.8 1.8 0 0 1 31.84.85a1.845 1.845 0 0 1 1.2-.422 1.282 1.282 0 0 1 1.014.448 1.245 1.245 0 0 1 .267 1.065 1.768 1.768 0 0 1-.62 1.052 1.813 1.813 0 0 1-1.16.41h.013ZM40.831 2.308a1.432 1.432 0 0 0-1.078.314 1.398 1.398 0 0 0-.505.99l-.238 1.531h2.01v2.113h-2.34l-1.294 8.307h-2.608l1.294-8.298h-1.519l.33-2.113h1.528l.28-1.806c.356-2.307 1.976-3.16 4.118-3.16.354 0 .707.028 1.057.085v2.113A6.491 6.491 0 0 0 40.79 2.3l.041.009ZM40.859 15.564l1.624-10.411h2.622l-1.633 10.411h-2.613Zm3.203-12.159a1.264 1.264 0 0 1-1.025-.41 1.23 1.23 0 0 1-.293-1.053c.072-.426.295-.813.631-1.09a1.846 1.846 0 0 1 1.2-.422 1.283 1.283 0 0 1 1.037.435 1.242 1.242 0 0 1 .276 1.077 1.76 1.76 0 0 1-.618 1.054 1.804 1.804 0 0 1-1.162.41h-.046ZM55.264 10.863h-6.759c-.188 2.027.769 2.908 2.384 2.908 1.373 0 2.544-.492 3.83-1.292v2.028a8.226 8.226 0 0 1-4.416 1.268c-2.946 0-4.891-1.657-4.31-5.418.53-3.381 2.901-5.418 5.656-5.418 3.166 0 4.219 2.353 3.761 5.306-.036.212-.096.474-.123.623l-.023-.005Zm-3.986-4.14c-1.048 0-2.027.822-2.49 2.524h4.197c.078-1.617-.458-2.524-1.707-2.524ZM63.03 15.563v-1.445a4.919 4.919 0 0 1-1.574 1.182c-.6.285-1.253.446-1.918.475-2.21 0-3.725-1.616-3.176-5.129.604-3.878 3.034-5.603 5.491-5.603.812-.01 1.62.121 2.384.388l.787-5.02 2.7-.411L65.3 15.563h-2.27Zm.878-7.996a3.896 3.896 0 0 0-1.986-.451c-1.373 0-2.549 1.101-2.906 3.386-.316 2.022.407 2.975 1.565 2.975.961 0 1.794-.56 2.627-1.422l.7-4.483v-.005ZM73.312 15.657a9.51 9.51 0 0 1-3.204-.52l1.735-11.052 2.031-.312-.745 4.804a3.745 3.745 0 0 1 2.43-1.043c1.688 0 2.818 1.242 2.406 3.888-.457 2.903-2.288 4.257-4.653 4.257v-.022Zm1.464-6.416c-.664 0-1.327.452-1.917 1.03l-.559 3.575c.388.156.804.228 1.222.213 1.258 0 2.137-.75 2.416-2.547.238-1.517-.274-2.257-1.167-2.257l.005-.014ZM82.642 15.987c-1.016 1.942-2.018 2.547-3.56 2.547-.241.006-.481-.021-.714-.081v-1.617c.299.077.606.115.915.113.291.005.578-.07.828-.217s.455-.36.59-.614l.266-.523-1.684-7.77 2.11-.263.974 5.617 2.631-5.504h1.968l-4.324 8.312Z" fill="#11559C"/></g><defs><clipPath id="a"><path fill="#fff" d="M0 0h87v37H0z"/></clipPath></defs></svg>