<svg width="95" height="28" fill="none" xmlns="http://www.w3.org/2000/svg"><circle cx="12" cy="14" r="11.719" stroke="#4F4B58" stroke-width=".563"/><path d="M40.403 21 36.426 6.455h1.79l3.04 11.846h.142l3.096-11.846h1.989L49.58 18.3h.142l3.04-11.846h1.79L50.573 21h-1.818l-3.21-11.59h-.114L42.222 21h-1.819Zm16.343 0V6.455h5.085c1.013 0 1.849.175 2.507.525.658.346 1.148.812 1.47 1.4a3.94 3.94 0 0 1 .483 1.938c0 .625-.111 1.141-.334 1.549-.217.407-.506.729-.866.965a3.946 3.946 0 0 1-1.158.526v.142c.445.028.893.185 1.343.469.45.284.826.691 1.129 1.221.303.53.454 1.18.454 1.946 0 .73-.165 1.385-.497 1.968-.331.582-.854 1.044-1.57 1.385-.714.34-1.645.511-2.79.511h-5.256Zm1.761-1.563h3.494c1.151 0 1.968-.222 2.45-.667.488-.45.732-.994.732-1.634 0-.492-.125-.947-.376-1.363a2.724 2.724 0 0 0-1.073-1.009c-.464-.255-1.013-.383-1.647-.383h-3.58v5.056Zm0-6.59h3.267c.53 0 1.009-.105 1.435-.313.43-.208.772-.502 1.022-.88.256-.38.384-.825.384-1.336 0-.639-.222-1.181-.668-1.626-.445-.45-1.15-.675-2.116-.675h-3.324v4.83Zm10.451-4.83V6.455h10.91v1.562h-4.575V21h-1.761V8.017h-4.574ZM93.685 11h-1.762a3.663 3.663 0 0 0-1.484-2.301 3.98 3.98 0 0 0-1.215-.597 4.85 4.85 0 0 0-1.392-.199c-.88 0-1.678.223-2.393.668-.71.445-1.276 1.1-1.697 1.967-.417.867-.626 1.93-.626 3.19 0 1.259.209 2.322.626 3.188.42.867.987 1.522 1.697 1.968a4.437 4.437 0 0 0 2.393.667c.483 0 .947-.066 1.392-.199.445-.132.85-.329 1.215-.59.37-.264.682-.589.937-.972.26-.389.443-.834.547-1.335h1.762a5.868 5.868 0 0 1-.725 1.995 5.457 5.457 0 0 1-1.307 1.499 5.723 5.723 0 0 1-1.754.93 6.54 6.54 0 0 1-2.067.32c-1.24 0-2.343-.303-3.31-.91-.965-.605-1.725-1.467-2.28-2.585-.553-1.117-.83-2.443-.83-3.977 0-1.534.277-2.86.83-3.977.555-1.117 1.315-1.98 2.28-2.585.967-.606 2.07-.91 3.31-.91.734 0 1.423.107 2.067.32a5.64 5.64 0 0 1 1.754.938c.521.407.957.904 1.307 1.491.35.583.592 1.248.725 1.996Z" fill="#000"/></svg>